<svg width="70" height="70" viewBox="0 0 70 70" fill="none" xmlns="http://www.w3.org/2000/svg">
<rect width="70" height="70" fill="black"/>
<path d="M35 8.75003C20.5215 8.75003 8.75 20.5215 8.75 35C8.75 49.4786 20.5215 61.25 35 61.25C49.4786 61.25 61.25 49.4786 61.25 35C61.25 20.5215 49.4786 8.75003 35 8.75003Z" fill="#E6001F"/>
<path d="M18.125 48.125C18.125 48.125 29.7888 20.0074 29.7611 20H38.6189L51.875 48.125H41.8627C41.8702 48.1398 34.3556 30.8681 34.2612 30.6944C34.2447 30.845 29.2782 42.4046 29.2182 42.4188H34.5706C34.5462 42.4482 36.8979 48.0714 36.8979 48.125H18.125Z" fill="white"/>
</svg>
