<svg width="70" height="70" viewBox="0 0 70 70" fill="none" xmlns="http://www.w3.org/2000/svg">
<rect width="70" height="70" fill="#0A192F"/>
<path d="M35 61.25C49.4975 61.25 61.25 49.4975 61.25 35C61.25 20.5025 49.4975 8.75 35 8.75C20.5025 8.75 8.75 20.5025 8.75 35C8.75 49.4975 20.5025 61.25 35 61.25Z" fill="#105DFB"/>
<path fill-rule="evenodd" clip-rule="evenodd" d="M17.8923 47.1741V24.269H28.4809C31.882 24.269 34.6392 27.0261 34.6392 30.4272C34.6392 32.5885 33.9747 33.9272 31.5379 35.3007C34.4537 36.6293 35.2636 38.4707 35.2636 41.0391C35.2636 44.5137 32.1769 47.1741 28.7024 47.1741H17.8923ZM22.373 28.0605V33.5683H27.6171C27.6171 33.5683 30.166 33.5683 30.166 30.8145C30.166 28.0605 27.6171 28.0605 27.6171 28.0605H22.373ZM22.373 43.2949V37.3478H27.9979C28.9062 37.3478 30.8104 37.8165 30.8104 40.629C30.8104 42.715 28.9354 43.2754 27.9979 43.2949H22.373Z" fill="white"/>
<path fill-rule="evenodd" clip-rule="evenodd" d="M44.8437 30.5801C41.621 30.5801 36.8457 32.8946 36.8457 39.0468C36.8457 42.7931 38.8964 47.6015 45.0488 47.6015C49.9707 47.6015 52.2363 43.9882 52.754 42.1816H48.125C47.8906 43.002 46.9823 43.9102 45.0488 43.9102C42.2363 43.9102 41.2401 41.5078 41.0937 40.3066H52.754V39.0468C52.754 32.8946 48.0665 30.5801 44.8437 30.5801ZM44.8437 34.0957C42.2187 34.0957 41.2499 36.2636 41.0937 37.3477H48.125C48.125 36.2636 47.4687 34.0957 44.8437 34.0957Z" fill="white"/>
<path d="M39.248 25.5703V28.4121H50.2929V25.5703H39.248Z" fill="white"/>
</svg>
