<svg width="70" height="70" viewBox="0 0 70 70" fill="none" xmlns="http://www.w3.org/2000/svg">
<rect width="70" height="70" fill="black"/>
<path d="M35 61.25C49.4975 61.25 61.25 49.4975 61.25 35C61.25 20.5025 49.4975 8.75 35 8.75C20.5025 8.75 8.75 20.5025 8.75 35C8.75 49.4975 20.5025 61.25 35 61.25Z" fill="#105DFB"/>
<path fill-rule="evenodd" clip-rule="evenodd" d="M17.8926 47.1741V24.269H28.4812C31.8822 24.269 34.6394 27.0261 34.6394 30.4271C34.6394 32.5884 33.9749 33.9272 31.5382 35.3006C34.454 36.6293 35.2638 38.4707 35.2638 41.0391C35.2638 44.5136 32.1772 47.1741 28.7026 47.1741H17.8926ZM22.3732 28.0605V33.5683H27.6174C27.6174 33.5683 30.1662 33.5683 30.1662 30.8145C30.1662 28.0605 27.6174 28.0605 27.6174 28.0605H22.3732ZM22.3732 43.2949V37.3478H27.9982C28.9064 37.3478 30.8107 37.8165 30.8107 40.629C30.8107 42.7149 28.9357 43.2754 27.9982 43.2949H22.3732Z" fill="white"/>
<path fill-rule="evenodd" clip-rule="evenodd" d="M44.8437 30.5801C41.621 30.5801 36.8457 32.8946 36.8457 39.0469C36.8457 42.7931 38.8964 47.6016 45.0488 47.6016C49.9707 47.6016 52.2363 43.9883 52.754 42.1817H48.125C47.8906 43.002 46.9823 43.9103 45.0488 43.9103C42.2363 43.9103 41.2401 41.5078 41.0937 40.3067H52.754V39.0469C52.754 32.8946 48.0665 30.5801 44.8437 30.5801ZM44.8437 34.0958C42.2187 34.0958 41.2499 36.2636 41.0937 37.3478H48.125C48.125 36.2636 47.4687 34.0958 44.8437 34.0958Z" fill="white"/>
<path d="M39.248 25.5703V28.4121H50.2929V25.5703H39.248Z" fill="white"/>
</svg>
