<svg width="92" height="93" viewBox="0 0 92 93" fill="none" xmlns="http://www.w3.org/2000/svg">
<path d="M46 91C21.1472 91 1 70.8528 1 46C1 21.1472 21.1472 1 46 1C70.8528 1 91 21.1472 91 46C91 70.8528 70.8528 91 46 91Z" fill="#1E1E1E" stroke="#54EBD7" stroke-width="2"/>
<g filter="url(#filter0_d_317_2)">
<path d="M46 7C24.4606 7 7 24.4606 7 46C7 67.5394 24.4606 85 46 85C67.5394 85 85 67.5394 85 46C85 24.4606 67.5394 7 46 7ZM36.4531 62.1606H28.5556V36.7537H36.4531V62.1606ZM32.4556 33.6338C29.9612 33.6338 28.3444 31.8625 28.3444 29.6769C28.3444 27.4425 30.0019 25.7281 32.5531 25.7281C35.1044 25.7281 36.6644 27.4425 36.7131 29.6769C36.7213 31.8706 35.1044 33.6338 32.4556 33.6338ZM65.2887 62.1606H57.3912V48.08C57.3912 44.8056 56.2456 42.5713 53.3856 42.5713C51.2081 42.5713 49.9081 44.0825 49.3312 45.5288C49.12 46.0406 49.0712 46.7719 49.0712 47.5031V62.1525H41.1656V44.8462C41.1656 41.6775 41.0681 39.0206 40.9544 36.7375H47.8119L48.1775 40.2637H48.3319C49.3719 38.6062 51.9231 36.1606 56.1806 36.1606C61.3725 36.1606 65.2725 39.6381 65.2725 47.1212V62.1606H65.2887Z" fill="#54EBD7"/>
<path d="M36.4531 62.6606H36.9531V62.1606V36.7537V36.2537H36.4531H28.5556H28.0556V36.7537V62.1606V62.6606H28.5556H36.4531ZM37.2131 29.675H37.2132L37.213 29.666C37.1861 28.434 36.7406 27.3184 35.9233 26.5093C35.1042 25.6983 33.9449 25.2281 32.5531 25.2281C31.1629 25.2281 29.9815 25.6971 29.1448 26.5049C28.308 27.3127 27.8444 28.4324 27.8444 29.6769C27.8444 32.1386 29.6851 34.1338 32.4556 34.1338C33.894 34.1338 35.0908 33.6529 35.9295 32.8362C36.7675 32.0203 37.2177 30.898 37.2131 29.675ZM56.8912 62.1606V62.6606H57.3912H64.7725H65.2725H65.2887V62.1606H65.7725V47.1212C65.7725 43.2966 64.7753 40.423 63.0452 38.5003C61.31 36.572 58.8919 35.6606 56.1806 35.6606C52.4231 35.6606 49.9204 37.478 48.5601 39.1056L48.3092 36.6859L48.2627 36.2375H47.8119H40.9544H40.4288L40.455 36.7624C40.5685 39.0399 40.6656 41.6881 40.6656 44.8462V62.1525V62.6525H41.1656H49.0712H49.5712V62.1525V47.5031C49.5712 46.7701 49.624 46.13 49.7934 45.7195L49.7935 45.7195L49.7957 45.714C50.3287 44.3777 51.4871 43.0713 53.3856 43.0713C54.663 43.0713 55.5013 43.5579 56.0446 44.3747C56.61 45.2245 56.8912 46.4868 56.8912 48.08V62.1606ZM7.5 46C7.5 24.7368 24.7368 7.5 46 7.5C67.2632 7.5 84.5 24.7368 84.5 46C84.5 67.2632 67.2632 84.5 46 84.5C24.7368 84.5 7.5 67.2632 7.5 46Z" stroke="#54EBD7"/>
</g>
<defs>
<filter id="filter0_d_317_2" x="3" y="7" width="86" height="86" filterUnits="userSpaceOnUse" color-interpolation-filters="sRGB">
<feFlood flood-opacity="0" result="BackgroundImageFix"/>
<feColorMatrix in="SourceAlpha" type="matrix" values="0 0 0 0 0 0 0 0 0 0 0 0 0 0 0 0 0 0 127 0" result="hardAlpha"/>
<feOffset dy="4"/>
<feGaussianBlur stdDeviation="2"/>
<feComposite in2="hardAlpha" operator="out"/>
<feColorMatrix type="matrix" values="0 0 0 0 0 0 0 0 0 0 0 0 0 0 0 0 0 0 0.25 0"/>
<feBlend mode="normal" in2="BackgroundImageFix" result="effect1_dropShadow_317_2"/>
<feBlend mode="normal" in="SourceGraphic" in2="effect1_dropShadow_317_2" result="shape"/>
</filter>
</defs>
</svg>
