<svg width="70" height="70" viewBox="0 0 70 70" fill="none" xmlns="http://www.w3.org/2000/svg">
<rect width="70" height="70" fill="#0A192F"/>
<g clip-path="url(#clip0_337_144)">
<path d="M35 60C48.8071 60 60 48.8071 60 35C60 21.1929 48.8071 10 35 10C21.1929 10 10 21.1929 10 35C10 48.8071 21.1929 60 35 60Z" fill="#23BEC7"/>
<path d="M35.5821 35.4215C36.3132 34.7792 36.9068 34.1742 37.6895 33.8445C38.1483 33.6524 38.6558 33.38 39.0916 33.8015C39.5275 34.223 39.2522 34.6846 39.1203 35.1376C38.8565 36.0466 38.5899 36.9584 38.349 37.873C38.2773 38.1397 38.1569 38.4465 38.4293 38.6845C38.7017 38.9224 39.0429 38.7647 39.3124 38.6271C40.3102 38.1167 41.1217 37.5117 40.9955 36.1699C40.921 35.367 40.9955 34.5126 41.7382 33.9391C42.0249 33.7126 42.3718 33.4488 42.736 33.7011C43.1001 33.9535 42.8392 34.2746 42.736 34.5613C42.3837 35.6426 42.2856 36.7906 42.4493 37.916C42.4865 38.1684 42.4493 38.5325 42.6815 38.6243C42.9998 38.7447 43.1431 38.3375 43.3467 38.1712C43.5503 38.0049 43.6879 37.7698 43.8657 37.5748C44.3359 37.0616 44.594 36.6516 43.9689 35.9491C43.2435 35.1376 43.4614 33.5492 44.1754 32.7951C44.3714 32.5593 44.6366 32.3909 44.9334 32.3138C45.2302 32.2366 45.5437 32.2545 45.8298 32.365C46.452 32.5915 46.6556 33.1277 46.6728 33.7556C46.69 34.461 46.3861 35.0803 46.1481 35.7627C46.842 35.9376 47.2721 35.5477 47.662 35.1262C48.6025 34.1054 49.6921 33.4574 51.1372 33.6094C52.1838 33.7183 52.783 34.2832 52.7285 35.1061C52.7079 35.2883 52.6439 35.463 52.5419 35.6154C52.4399 35.7678 52.3028 35.8935 52.1421 35.982C51.9815 36.0704 51.802 36.1191 51.6186 36.1238C51.4353 36.1286 51.2535 36.0893 51.0884 36.0093C50.7616 35.8344 50.8017 35.6738 51.0884 35.5075C51.1984 35.4599 51.2866 35.373 51.3359 35.2637C51.3853 35.1545 51.3921 35.0308 51.3551 34.9169C51.3099 34.7805 51.2248 34.6608 51.1108 34.5734C50.9968 34.4859 50.8591 34.4348 50.7157 34.4266C50.3209 34.3678 49.9183 34.4578 49.586 34.6789C48.5365 35.3498 47.9487 37.2135 48.4391 38.349C48.7258 39.0314 49.2591 39.1604 49.8125 38.6759C50.1178 38.3833 50.348 38.0213 50.4834 37.6207C50.5644 37.3711 50.6792 37.1337 50.8246 36.9154C51.0856 36.5684 51.4469 36.2616 51.8999 36.448C52.3529 36.6344 52.1207 37.1046 52.0461 37.4229C51.7795 38.5268 51.5529 39.602 52.4877 40.531C52.5124 40.5536 52.5321 40.581 52.5456 40.6116C52.5591 40.6422 52.566 40.6753 52.566 40.7088C52.566 40.7422 52.5591 40.7753 52.5456 40.8059C52.5321 40.8365 52.5124 40.864 52.4877 40.8865C52.4312 40.942 52.3584 40.978 52.2801 40.9893C52.2017 41.0007 52.1218 40.9868 52.0519 40.9496C51.7277 40.8359 51.4291 40.6593 51.1733 40.4301C50.9174 40.2008 50.7093 39.9233 50.5609 39.6135C50.4662 39.407 50.4261 39.106 50.0906 39.4013C49.8012 39.6979 49.4144 39.8801 49.0014 39.9143C48.5884 39.9485 48.177 39.8325 47.8426 39.5877C47.0283 39.0658 46.7359 38.283 46.8104 37.3454C46.8248 37.1619 46.8477 36.9842 46.8706 36.772C45.933 36.8494 45.1703 37.0587 44.6341 37.9189C44.1691 38.6297 43.5358 39.2147 42.7905 39.6221C41.8127 40.1955 41.4314 40.0177 41.1676 38.9425C41.1303 38.7934 41.0988 38.6558 41.0414 38.3691C40.4063 38.9378 39.6791 39.3945 38.8909 39.7196C37.4085 40.2471 36.5483 39.5676 36.7663 37.9992C36.9007 37.1937 37.1228 36.4053 37.4286 35.648C37.4974 35.4616 37.6637 35.2323 37.4286 35.0746C37.2566 34.9656 37.0759 35.1491 36.9412 35.2638C36.0265 36.0408 35.2208 36.901 34.957 38.1311C34.8957 38.4938 34.7918 38.848 34.6473 39.1862C34.5603 39.4124 34.4001 39.603 34.1923 39.7277C33.9845 39.8523 33.7409 39.904 33.5004 39.8744C32.9843 39.7826 33.3169 39.2551 33.1735 38.931C32.623 39.2178 32.0954 39.5045 31.5506 39.754C31.1578 39.9346 30.6446 40.078 30.3578 39.7396C29.879 39.1662 29.555 39.364 29.0503 39.6851C28.3134 40.1554 27.4676 39.9547 26.7995 39.1776C26.4612 38.7848 26.2863 38.8106 25.9594 39.1604C25.2975 39.8433 24.5111 40.3931 23.6426 40.7804C20.2334 42.4005 16.8815 40.5826 16.6923 36.8265C16.4686 32.5858 18.2721 29.211 21.8161 26.8569C22.274 26.539 22.7967 26.3265 23.3465 26.2347C23.8963 26.143 24.4597 26.1744 24.996 26.3265C25.6251 26.491 26.1779 26.8682 26.5605 27.394C26.9431 27.9198 27.1319 28.5618 27.0948 29.211C27.0531 29.8338 26.8141 30.4271 26.4125 30.905C26.0109 31.3829 25.4675 31.7205 24.8612 31.8689C24.6576 31.9148 24.3938 31.9951 24.2877 31.803C24.1272 31.5449 24.3824 31.37 24.5573 31.2295C25.515 30.421 25.6784 29.3687 25.4978 28.2132C25.3257 27.1351 24.5573 26.6992 23.5336 27.0921C22.7989 27.397 22.1508 27.8786 21.647 28.4942C19.9536 30.3652 18.8949 32.7235 18.622 35.2323C18.484 36.3153 18.6769 37.4148 19.1753 38.3863C19.9036 39.7769 21.1394 40.3934 22.6649 40.0321C23.8719 39.7304 24.9796 39.1197 25.8791 38.2601C26.0051 38.1283 26.1036 37.9727 26.1685 37.8023C26.2335 37.6319 26.2638 37.4503 26.2576 37.268C26.4669 35.0889 28.3507 33.4545 30.4553 33.6151C30.963 33.6309 31.4466 33.8354 31.8116 34.1886C31.985 34.3508 32.1038 34.5629 32.1516 34.7956C32.1994 35.0282 32.1737 35.27 32.0782 35.4874C31.8746 35.9806 31.4216 36.1412 30.9084 36.1154C30.801 36.127 30.6925 36.1119 30.5924 36.0714C30.4923 36.0309 30.4039 35.9662 30.3349 35.8831C30.1456 35.5964 30.5069 35.5763 30.6216 35.433C30.9428 35.0315 30.7621 34.5527 30.2116 34.4409C29.9392 34.3797 29.6554 34.3921 29.3894 34.4767C29.1234 34.5614 28.8846 34.7153 28.6977 34.9226C28.3078 35.3185 28.0173 35.801 27.8498 36.3308C27.6824 36.8606 27.6428 37.4225 27.7342 37.9705C27.7916 38.3949 27.9722 38.8106 28.4396 38.9368C28.907 39.0629 29.2109 38.7131 29.4976 38.3863C29.7099 38.1151 29.8632 37.8026 29.9478 37.4687C30.0164 37.155 30.1868 36.8728 30.4324 36.6659C30.7191 36.4451 31.0345 36.2645 31.3729 36.4623C31.7112 36.6602 31.5048 36.9928 31.5048 37.268C31.5048 37.7727 30.96 38.3605 31.6338 38.7475C31.9951 38.954 33.4517 37.8558 33.5663 37.3397C33.747 36.5168 33.8932 35.6853 34.0567 34.8595C34.0768 34.5684 34.187 34.2909 34.3721 34.0653C34.5113 33.9065 34.6958 33.7939 34.9007 33.7427C35.1056 33.6914 35.3213 33.704 35.519 33.7785C35.9519 33.9592 35.7369 34.352 35.6939 34.6846C35.6709 34.8825 35.6365 35.0832 35.5821 35.4215ZM45.2678 33.5119C45.1933 33.3112 45.0728 33.1162 44.8262 33.142C44.5797 33.1678 44.508 33.3943 44.4879 33.6065C44.4563 33.9207 44.4993 34.2379 44.6134 34.5324C44.7275 34.8268 44.9095 35.0902 45.1445 35.3011C45.4153 34.743 45.4595 34.1018 45.2678 33.5119Z" fill="white"/>
</g>
<defs>
<clipPath id="clip0_337_144">
<rect width="50" height="50" fill="white" transform="translate(10 10)"/>
</clipPath>
</defs>
</svg>
