<svg width="70" height="70" viewBox="0 0 70 70" fill="none" xmlns="http://www.w3.org/2000/svg">
<rect width="70" height="70" fill="black"/>
<g clip-path="url(#clip0_337_144)">
<path d="M35 60C48.8071 60 60 48.8071 60 35C60 21.1929 48.8071 10 35 10C21.1929 10 10 21.1929 10 35C10 48.8071 21.1929 60 35 60Z" fill="#23BEC7"/>
<path d="M35.5822 35.4214C36.3133 34.7791 36.9069 34.1741 37.6896 33.8444C38.1484 33.6523 38.6559 33.3799 39.0918 33.8014C39.5276 34.2229 39.2523 34.6845 39.1204 35.1375C38.8566 36.0465 38.59 36.9583 38.3491 37.8729C38.2774 38.1396 38.157 38.4464 38.4294 38.6844C38.7018 38.9224 39.043 38.7647 39.3125 38.627C40.3104 38.1166 41.1218 37.5117 40.9957 36.1698C40.9211 35.3669 40.9957 34.5125 41.7383 33.939C42.025 33.7125 42.372 33.4487 42.7361 33.701C43.1003 33.9534 42.8393 34.2745 42.7361 34.5612C42.3838 35.6425 42.2857 36.7905 42.4494 37.9159C42.4866 38.1683 42.4494 38.5324 42.6816 38.6242C42.9999 38.7446 43.1433 38.3374 43.3468 38.1711C43.5504 38.0048 43.6881 37.7697 43.8658 37.5747C44.3361 37.0615 44.5941 36.6515 43.969 35.949C43.2436 35.1375 43.4615 33.5491 44.1755 32.795C44.3716 32.5592 44.6367 32.3908 44.9335 32.3137C45.2303 32.2365 45.5438 32.2544 45.8299 32.3649C46.4521 32.5914 46.6557 33.1276 46.6729 33.7555C46.6901 34.4609 46.3862 35.0802 46.1482 35.7626C46.8421 35.9375 47.2722 35.5476 47.6621 35.1261C48.6026 34.1053 49.6922 33.4573 51.1373 33.6093C52.1839 33.7182 52.7831 34.2831 52.7287 35.106C52.7081 35.2882 52.6441 35.4629 52.542 35.6153C52.44 35.7677 52.3029 35.8934 52.1423 35.9819C51.9816 36.0703 51.8021 36.119 51.6187 36.1237C51.4354 36.1285 51.2536 36.0892 51.0886 36.0092C50.7617 35.8343 50.8018 35.6737 51.0886 35.5074C51.1985 35.4598 51.2868 35.3729 51.3361 35.2636C51.3854 35.1544 51.3922 35.0308 51.3552 34.9168C51.3101 34.7804 51.2249 34.6607 51.1109 34.5733C50.9969 34.4858 50.8593 34.4347 50.7158 34.4265C50.321 34.3677 49.9184 34.4577 49.5861 34.6788C48.5367 35.3497 47.9489 37.2135 48.4392 38.3489C48.7259 39.0313 49.2592 39.1603 49.8126 38.6758C50.1179 38.3832 50.3481 38.0212 50.4836 37.6206C50.5645 37.371 50.6793 37.1337 50.8248 36.9153C51.0857 36.5683 51.447 36.2615 51.9 36.4479C52.353 36.6343 52.1208 37.1045 52.0462 37.4228C51.7796 38.5267 51.5531 39.6019 52.4878 40.5309C52.5125 40.5535 52.5322 40.5809 52.5457 40.6115C52.5592 40.6421 52.5662 40.6752 52.5662 40.7087C52.5662 40.7421 52.5592 40.7752 52.5457 40.8058C52.5322 40.8364 52.5125 40.8639 52.4878 40.8864C52.4313 40.9419 52.3586 40.9779 52.2802 40.9892C52.2018 41.0006 52.1219 40.9867 52.052 40.9495C51.7278 40.8358 51.4292 40.6592 51.1734 40.43C50.9175 40.2007 50.7094 39.9232 50.561 39.6134C50.4664 39.4069 50.4262 39.1059 50.0907 39.4012C49.8013 39.6978 49.4146 39.88 49.0016 39.9142C48.5886 39.9484 48.1771 39.8325 47.8428 39.5876C47.0285 39.0657 46.736 38.283 46.8105 37.3454C46.8249 37.1618 46.8478 36.9841 46.8708 36.7719C45.9331 36.8493 45.1704 37.0586 44.6343 37.9188C44.1692 38.6296 43.5359 39.2146 42.7906 39.622C41.8128 40.1954 41.4315 40.0177 41.1677 38.9424C41.1304 38.7933 41.0989 38.6557 41.0415 38.369C40.4064 38.9377 39.6792 39.3944 38.8911 39.7195C37.4087 40.247 36.5485 39.5675 36.7664 37.9991C36.9008 37.1936 37.1229 36.4052 37.4287 35.6479C37.4975 35.4615 37.6638 35.2322 37.4287 35.0745C37.2567 34.9655 37.076 35.149 36.9413 35.2637C36.0266 36.0407 35.2209 36.9009 34.9571 38.131C34.8958 38.4937 34.7919 38.8479 34.6474 39.1861C34.5604 39.4123 34.4002 39.6029 34.1924 39.7276C33.9846 39.8523 33.7411 39.9039 33.5005 39.8743C32.9844 39.7825 33.317 39.255 33.1736 38.931C32.6231 39.2177 32.0955 39.5044 31.5508 39.7539C31.1579 39.9345 30.6447 40.0779 30.358 39.7395C29.8791 39.1661 29.5551 39.3639 29.0505 39.6851C28.3136 40.1553 27.4677 39.9546 26.7996 39.1775C26.4613 38.7847 26.2864 38.8105 25.9595 39.1603C25.2976 39.8432 24.5112 40.3931 23.6427 40.7804C20.2335 42.4004 16.8816 40.5825 16.6924 36.8264C16.4687 32.5857 18.2723 29.2109 21.8163 26.8568C22.2741 26.5389 22.7968 26.3264 23.3466 26.2347C23.8965 26.1429 24.4598 26.1743 24.9961 26.3264C25.6252 26.4909 26.178 26.8681 26.5606 27.3939C26.9432 27.9197 27.132 28.5617 27.095 29.2109C27.0532 29.8337 26.8142 30.427 26.4126 30.9049C26.011 31.3828 25.4677 31.7204 24.8613 31.8688C24.6578 31.9147 24.394 31.995 24.2879 31.8029C24.1273 31.5448 24.3825 31.3699 24.5574 31.2294C25.5151 30.4209 25.6785 29.3686 25.4979 28.2131C25.3258 27.135 24.5574 26.6991 23.5338 27.092C22.799 27.3969 22.151 27.8785 21.6471 28.4941C19.9537 30.3651 18.895 32.7234 18.6221 35.2322C18.4841 36.3153 18.677 37.4148 19.1755 38.3862C19.9038 39.7768 21.1396 40.3933 22.665 40.032C23.872 39.7303 24.9797 39.1196 25.8792 38.26C26.0053 38.1282 26.1037 37.9726 26.1687 37.8022C26.2337 37.6318 26.2639 37.4502 26.2577 37.2679C26.467 35.0888 28.3508 33.4545 30.4554 33.615C30.9631 33.6308 31.4467 33.8353 31.8117 34.1885C31.9851 34.3507 32.104 34.5628 32.1517 34.7955C32.1995 35.0281 32.1739 35.2699 32.0783 35.4874C31.8748 35.9805 31.4217 36.1411 30.9085 36.1153C30.8011 36.1269 30.6926 36.1118 30.5925 36.0713C30.4925 36.0308 30.404 35.9661 30.335 35.883C30.1458 35.5963 30.5071 35.5762 30.6217 35.4329C30.9429 35.0315 30.7622 34.5526 30.2117 34.4408C29.9393 34.3796 29.6556 34.392 29.3895 34.4767C29.1235 34.5613 28.8847 34.7152 28.6978 34.9225C28.3079 35.3184 28.0174 35.801 27.8499 36.3307C27.6825 36.8605 27.6429 37.4224 27.7344 37.9704C27.7917 38.3948 27.9724 38.8105 28.4397 38.9367C28.9071 39.0629 29.211 38.713 29.4978 38.3862C29.71 38.115 29.8634 37.8025 29.9479 37.4686C30.0165 37.1549 30.1869 36.8727 30.4325 36.6658C30.7192 36.445 31.0346 36.2644 31.373 36.4622C31.7113 36.6601 31.5049 36.9927 31.5049 37.2679C31.5049 37.7726 30.9601 38.3604 31.6339 38.7475C31.9952 38.9539 33.4518 37.8557 33.5665 37.3396C33.7471 36.5167 33.8933 35.6852 34.0568 34.8594C34.0769 34.5683 34.1871 34.2908 34.3722 34.0652C34.5115 33.9064 34.6959 33.7938 34.9008 33.7426C35.1058 33.6913 35.3215 33.7039 35.5191 33.7785C35.9521 33.9591 35.737 34.3519 35.694 34.6845C35.6711 34.8824 35.6367 35.0831 35.5822 35.4214V35.4214ZM45.2679 33.5118C45.1934 33.3111 45.073 33.1161 44.8264 33.1419C44.5798 33.1677 44.5081 33.3942 44.488 33.6064C44.4565 33.9206 44.4995 34.2378 44.6136 34.5323C44.7276 34.8267 44.9096 35.0901 45.1446 35.301C45.4154 34.7429 45.4596 34.1017 45.2679 33.5118Z" fill="white"/>
</g>
<defs>
<clipPath id="clip0_337_144">
<rect width="50" height="50" fill="white" transform="translate(10 10)"/>
</clipPath>
</defs>
</svg>
