<svg width="70" height="70" viewBox="0 0 70 70" fill="none" xmlns="http://www.w3.org/2000/svg">
<rect width="70" height="70" fill="black"/>
<path d="M38.484 35.6695C37.9654 34.2814 37.4081 32.9328 36.8148 31.6329C32.9391 33.2232 28.8492 34.039 24.6355 34.039C20.3936 34.039 16.2839 33.2185 12.3951 31.613C12.227 32.7386 12.1392 33.8729 12.1392 35.001C12.1392 41.5351 14.8936 47.6562 19.7409 52.0004C23.5565 44.2436 30.2828 38.3823 38.484 35.6695Z" fill="#FF6B97"/>
<path d="M57.5444 37.5476C52.2784 35.9088 46.6212 35.751 41.2622 37.1C43.2556 43.0727 44.3514 49.2751 44.5253 55.5826C51.5289 52.274 56.5902 45.5509 57.5444 37.5476Z" fill="#FF6B97"/>
<path d="M37.8442 28.8132C42.8684 26.3501 47.0533 22.5882 50.0397 17.846C45.8589 14.1724 40.5605 12.1392 34.9994 12.1392C32.3212 12.1392 29.7025 12.6103 27.1909 13.53C31.485 18.1009 35.061 23.2306 37.8442 28.8132Z" fill="#FF6B97"/>
<path d="M52.1774 16.8657L51.2029 15.9424L51.17 15.9988C46.6419 12.1361 40.9601 10 34.9995 10C31.7583 10 28.5975 10.6304 25.5883 11.8588L25.5741 11.8441L24.8988 12.1429C17.5364 15.4018 12.1649 22.032 10.5296 29.8776L10.3562 30.7095L10.3771 30.7195C10.1311 32.138 10 33.5737 10 35.001C10 42.3671 13.2057 49.2475 18.8118 54.0184L18.8023 54.0404L19.4463 54.5532C23.9216 58.1167 29.2995 60.0005 34.999 60.0005C38.0083 60.0005 40.9941 59.4453 43.874 58.3496L44.5633 58.0874V58.0566C52.895 54.7157 58.5883 47.277 59.7384 38.2705L59.7984 38.2913L59.905 36.9068C59.9494 36.3276 60 35.6711 60 35.001C60 28.0873 57.2221 21.6466 52.1774 16.8657ZM57.855 35.3818C54.853 34.4803 51.7487 34.0244 48.6057 34.0244C45.8909 34.0244 43.1877 34.3686 40.5559 35.0486C40.0112 33.5805 39.4211 32.1494 38.7953 30.7744L38.8042 30.7702L38.7964 30.7534C44.053 28.177 48.4563 24.2679 51.6401 19.3544C55.6616 23.614 57.8608 29.1208 57.8608 35.001C57.8608 35.1285 57.8588 35.2554 57.855 35.3818ZM19.7409 52.0004C14.8937 47.6562 12.1392 41.5351 12.1392 35.001C12.1392 33.8729 12.227 32.7386 12.3952 31.613C16.2839 33.2185 20.3937 34.039 24.6356 34.039C28.8493 34.039 32.9391 33.2232 36.8149 31.6329C37.4082 32.9328 37.9654 34.2814 38.4841 35.6695C30.2829 38.3823 23.5565 44.2436 19.7409 52.0004ZM25.0937 14.409C29.4745 18.9563 33.1083 24.0929 35.9119 29.7021C32.3224 31.1608 28.5343 31.8998 24.6356 31.8998C20.5326 31.8998 16.5602 31.0851 12.8151 29.477C14.4471 22.9089 18.9643 17.363 25.0937 14.409ZM50.0398 17.846C47.0535 22.5882 42.8685 26.3501 37.8444 28.8132C35.0611 23.2306 31.4851 18.1009 27.1911 13.53C29.7026 12.6103 32.3214 12.1392 34.9995 12.1392C40.5606 12.1392 45.859 14.1724 50.0398 17.846ZM21.4383 53.3865C24.9689 45.905 31.3729 40.2452 39.2122 37.6698C41.2626 43.7773 42.34 50.1375 42.4194 56.6021C39.9997 57.4378 37.5069 57.8613 34.999 57.8613C30.0656 57.8613 25.395 56.3169 21.4383 53.3865ZM44.5294 55.7628C44.5278 55.7027 44.5273 55.6427 44.5251 55.5826C44.3512 49.2751 43.2555 43.0727 41.2621 37.1C46.621 35.751 52.2783 35.9088 57.5443 37.5476C57.584 37.5602 57.6242 37.5716 57.6633 37.5842C56.7651 45.7217 51.8432 52.52 44.5294 55.7628Z" fill="white"/>
<path d="M51.6401 19.3544C48.4563 24.2679 44.0531 28.177 38.7965 30.7534L38.8043 30.7702L38.7954 30.7744C39.4211 32.1494 40.0112 33.5805 40.556 35.0486C43.1878 34.3686 45.891 34.0244 48.6057 34.0244C51.7488 34.0244 54.8531 34.4803 57.8551 35.3818C57.8588 35.2554 57.8609 35.1285 57.8609 35.001C57.8609 29.1208 55.6616 23.614 51.6401 19.3544Z" fill="#FF6B97"/>
<path d="M39.2124 37.6698C31.3731 40.2452 24.9691 45.905 21.4385 53.3865C25.3952 56.3169 30.0658 57.8613 34.9992 57.8613C37.5071 57.8613 39.9999 57.4378 42.4196 56.6021C42.3402 50.1375 41.2628 43.7773 39.2124 37.6698Z" fill="#FF6B97"/>
<path d="M24.6354 31.8998C28.5341 31.8998 32.3223 31.1608 35.9117 29.7021C33.1082 24.0929 29.4743 18.9563 25.0935 14.409C18.9641 17.363 14.447 22.9089 12.8149 29.477C16.5601 31.0851 20.5325 31.8998 24.6354 31.8998Z" fill="#FF6B97"/>
</svg>
