<svg width="1000" height="1000" viewBox="0 0 1000 1000" fill="none" xmlns="http://www.w3.org/2000/svg">
<g clip-path="url(#clip0_174_203)" filter="url(#filter0_d_174_203)">
<g filter="url(#filter1_f_174_203)">
<path fill-rule="evenodd" clip-rule="evenodd" d="M529.739 328.792C571.824 325.985 619.699 329.271 647.004 361.418C673.407 392.503 650.774 438.386 657.052 478.684C665.797 534.819 722.265 592.274 690.284 639.229C658.547 685.827 586.059 668.178 529.739 665.61C477.12 663.211 423.956 658.59 383.197 625.225C338.195 588.387 291.285 535.957 301.386 478.684C311.154 423.299 380.122 406.944 427.137 376.083C459.865 354.6 490.677 331.397 529.739 328.792Z" fill="#54EBD7"/>
</g>
</g>
<defs>
<filter id="filter0_d_174_203" x="-4" y="0" width="1008" height="1008" filterUnits="userSpaceOnUse" color-interpolation-filters="sRGB">
<feFlood flood-opacity="0" result="BackgroundImageFix"/>
<feColorMatrix in="SourceAlpha" type="matrix" values="0 0 0 0 0 0 0 0 0 0 0 0 0 0 0 0 0 0 127 0" result="hardAlpha"/>
<feOffset dy="4"/>
<feGaussianBlur stdDeviation="2"/>
<feComposite in2="hardAlpha" operator="out"/>
<feColorMatrix type="matrix" values="0 0 0 0 0 0 0 0 0 0 0 0 0 0 0 0 0 0 0.25 0"/>
<feBlend mode="normal" in2="BackgroundImageFix" result="effect1_dropShadow_174_203"/>
<feBlend mode="normal" in="SourceGraphic" in2="effect1_dropShadow_174_203" result="shape"/>
</filter>
<filter id="filter1_f_174_203" x="-54" y="-26" width="1108" height="1051.01" filterUnits="userSpaceOnUse" color-interpolation-filters="sRGB">
<feFlood flood-opacity="0" result="BackgroundImageFix"/>
<feBlend mode="normal" in="SourceGraphic" in2="BackgroundImageFix" result="shape"/>
<feGaussianBlur stdDeviation="177" result="effect1_foregroundBlur_174_203"/>
</filter>
<clipPath id="clip0_174_203">
<rect width="1000" height="1000" fill="white"/>
</clipPath>
</defs>
</svg>
