<svg width="36" height="36" viewBox="0 0 36 36" fill="none" xmlns="http://www.w3.org/2000/svg">
<path d="M32.9826 0.970774C32.4541 0.983248 31.952 1.20444 31.5861 1.58601L18.0002 15.1719L4.41423 1.58601C4.22762 1.39418 4.00442 1.24176 3.75784 1.13776C3.51125 1.03375 3.24631 0.980294 2.97869 0.980539C2.58099 0.981032 2.19246 1.10007 1.86274 1.32245C1.53302 1.54482 1.27708 1.86044 1.12761 2.22898C0.978139 2.59753 0.941924 3.00226 1.02359 3.39149C1.10526 3.78071 1.30111 4.13675 1.58611 4.41413L15.172 18.0001L1.58611 31.586C1.39416 31.7703 1.24092 31.991 1.13535 32.2353C1.02977 32.4795 0.974002 32.7424 0.971295 33.0085C0.968587 33.2746 1.019 33.5385 1.11958 33.7849C1.22016 34.0312 1.36888 34.255 1.55704 34.4432C1.74519 34.6314 1.969 34.7801 2.21536 34.8807C2.46171 34.9812 2.72566 35.0317 2.99174 35.0289C3.25783 35.0262 3.52069 34.9705 3.76495 34.8649C4.00921 34.7593 4.22994 34.6061 4.41423 34.4141L18.0002 20.8282L31.5861 34.4141C31.7704 34.6061 31.9911 34.7593 32.2354 34.8649C32.4797 34.9705 32.7425 35.0262 33.0086 35.029C33.2747 35.0317 33.5386 34.9813 33.785 34.8807C34.0313 34.7801 34.2552 34.6314 34.4433 34.4432C34.6315 34.2551 34.7802 34.0312 34.8808 33.7849C34.9813 33.5385 35.0318 33.2746 35.0291 33.0085C35.0263 32.7424 34.9706 32.4796 34.865 32.2353C34.7594 31.991 34.6062 31.7703 34.4142 31.586L20.8283 18.0001L34.4142 4.41413C34.7053 4.13507 34.9052 3.77456 34.9877 3.3799C35.0702 2.98523 35.0316 2.57483 34.8768 2.20252C34.722 1.83021 34.4583 1.51338 34.1203 1.29357C33.7823 1.07376 33.3857 0.961245 32.9826 0.970774Z" fill="white"/>
</svg>
