<svg width="70" height="70" viewBox="0 0 70 70" fill="none" xmlns="http://www.w3.org/2000/svg">
<rect width="70" height="70" fill="#0A192F"/>
<g clip-path="url(#clip0_337_120)">
<path d="M27.2518 59.4901C31.8049 59.4901 35.5001 55.7948 35.5001 51.2417V42.9934H27.2518C22.6987 42.9934 19.0034 46.6887 19.0034 51.2417C19.0034 55.7948 22.6987 59.4901 27.2518 59.4901Z" fill="#0ACF83"/>
<path d="M19.0034 34.7449C19.0034 30.1918 22.6987 26.4966 27.2518 26.4966H35.5001V42.9932H27.2518C22.6987 42.9932 19.0034 39.298 19.0034 34.7449Z" fill="#A259FF"/>
<path d="M19.0034 18.2483C19.0034 13.6953 22.6987 10 27.2518 10H35.5001V26.4967H27.2518C22.6987 26.4967 19.0034 22.8014 19.0034 18.2483Z" fill="#F24E1E"/>
<path d="M35.5 10H43.7484C48.3015 10 51.9967 13.6953 51.9967 18.2483C51.9967 22.8014 48.3015 26.4967 43.7484 26.4967H35.5V10Z" fill="#FF7262"/>
<path d="M51.9967 34.7449C51.9967 39.298 48.3015 42.9932 43.7484 42.9932C39.1953 42.9932 35.5 39.298 35.5 34.7449C35.5 30.1918 39.1953 26.4966 43.7484 26.4966C48.3015 26.4966 51.9967 30.1918 51.9967 34.7449Z" fill="#1ABCFE"/>
</g>
<defs>
<clipPath id="clip0_337_120">
<rect width="33" height="49.4901" fill="white" transform="translate(19 10)"/>
</clipPath>
</defs>
</svg>
