<svg width="44" height="44" viewBox="0 0 44 44" fill="none" xmlns="http://www.w3.org/2000/svg">
<g clip-path="url(#clip0_169_12)">
<path d="M160 0H0V160H160V0Z" fill="white" fill-opacity="0.01"/>
<path d="M26.899 27.9369C29.1023 27.4789 31.1017 26.6849 32.6559 25.5193C35.3101 23.5286 36.6666 20.4541 36.6666 17.4166C36.6666 15.2857 35.8587 13.2963 34.4601 11.6113C33.6807 10.6723 35.9603 3.6666 33.9349 4.61013C31.9095 5.55365 28.9398 7.64209 27.3831 7.18119C25.7165 6.68772 23.9004 6.4166 21.9999 6.4166C20.3492 6.4166 18.7622 6.62113 17.2815 6.99824C15.1291 7.54638 13.0708 5.49994 10.9999 4.61013C8.92904 3.72032 10.0591 10.9663 9.44397 11.7283C8.10434 13.388 7.33325 15.3348 7.33325 17.4166C7.33325 20.4541 8.97487 23.5286 11.629 25.5193C13.3971 26.8452 15.6144 27.6903 18.095 28.1068" stroke="white" stroke-width="2" stroke-linecap="round"/>
<path d="M18.0952 28.1069C17.0332 29.2759 16.5022 30.3858 16.5022 31.4368C16.5022 32.4878 16.5022 35.1511 16.5022 39.4267" stroke="white" stroke-width="2" stroke-linecap="round"/>
<path d="M26.8989 27.937C27.9052 29.2577 28.4084 30.4436 28.4084 31.4946C28.4084 32.5456 28.4084 35.1896 28.4084 39.4266" stroke="white" stroke-width="2" stroke-linecap="round"/>
<path d="M5.5 28.6143C6.32396 28.715 6.93508 29.0939 7.33333 29.7508C7.93072 30.7362 10.1513 34.3916 12.673 34.3916C14.3542 34.3916 15.6305 34.3916 16.5022 34.3916" stroke="white" stroke-width="2" stroke-linecap="round"/>
</g>
<defs>
<clipPath id="clip0_169_12">
<rect width="44" height="44" fill="white"/>
</clipPath>
</defs>
</svg>
