<svg width="200" height="184" viewBox="0 0 200 184" fill="none" xmlns="http://www.w3.org/2000/svg">
<path d="M195.993 53.6919C195.618 53.1416 195.192 52.7663 194.467 52.9414C193.792 52.8914 193.667 52.316 193.491 51.8408C192.916 50.1147 191.89 48.6889 190.565 47.4631C188.964 46.0123 187.113 45.2618 184.936 45.7871C184.236 45.9622 183.961 45.7871 183.535 45.2618C181.259 42.5602 177.457 41.9598 174.505 43.836C172.329 45.2118 170.953 47.3131 169.777 49.5394C169.552 49.9897 169.352 50.4399 168.877 50.6651C166.75 51.6406 165.8 53.5668 165.049 55.593C164.124 58.0945 164.199 60.7211 164.299 63.3227C164.324 63.9731 164.174 64.4734 163.674 64.9737C161.247 67.4001 158.796 69.8266 156.244 72.1279C152.642 75.4299 148.94 78.5818 145.112 81.6086C141.085 84.8106 136.932 87.9124 132.73 90.9142C131.754 91.6146 130.979 91.8648 129.953 91.2394C129.103 90.6891 128.177 90.8892 127.552 91.5396C126.176 92.9154 124.65 94.1662 123.599 95.8172C122.974 96.7928 122.274 97.3681 121.073 97.218C120.673 97.168 120.247 97.3431 119.847 97.3931C117.221 97.8684 116.87 97.5932 116.82 94.9667C116.82 94.4413 116.996 93.891 116.945 93.3657C116.895 92.6653 117.221 92.3151 117.771 91.9899C121.298 89.7135 124.425 87.0369 126.901 83.6349C127.552 82.7343 128.252 82.5842 129.253 82.7843C132.105 83.3097 134.381 81.9589 135.006 79.0821C135.557 76.5306 136.557 74.2542 137.958 72.0779C138.458 71.3025 138.759 70.3769 139.109 69.5014C139.834 67.7753 137.983 64.4483 135.582 64.6234C134.531 64.6985 133.63 65.0237 132.705 65.3489C132.105 65.574 131.679 65.499 131.254 65.0737C129.828 63.6729 128.252 62.4471 126.601 61.3465C126.051 60.9712 125.951 60.546 126.101 59.9706C126.551 58.1946 126.326 56.4435 125.676 54.7675C125.451 54.1922 125.426 53.7419 125.901 53.2166C126.526 52.5162 127.152 51.8158 127.577 50.9152C129.578 46.6126 129.328 42.5602 126.451 38.7329C126.176 38.3827 125.976 38.0575 126.226 37.5072C127.602 34.4553 126.926 32.179 124.175 30.1527C123.875 29.9276 123.574 29.7525 123.574 29.3022C123.524 26.5506 122.799 23.949 121.823 21.4225C119.422 15.3188 115.62 10.4659 109.316 7.96443C108.515 7.63923 107.99 7.18896 107.54 6.4135C104.213 0.559982 98.0091 -1.49125 91.6803 1.11031C91.2301 1.28542 90.7548 1.38548 90.3545 1.2604C88.9036 0.760104 87.4528 0.785117 85.9519 1.03527C83.2503 1.51055 80.8988 2.63623 79.1728 4.76251C77.3717 6.96383 76.5212 9.56539 76.3711 12.3921C76.3211 13.3176 76.096 14.0931 75.4956 14.8936C72.4688 18.846 70.1674 23.1485 69.6921 28.2016C69.3169 31.9788 69.8922 35.7061 70.7928 39.3833C71.8184 43.5608 72.894 47.7133 73.7946 51.9158C74.0447 53.0415 74.47 54.1922 74.2449 55.4179C73.7446 54.8176 73.3443 54.1922 72.9691 53.5918C72.4438 52.7413 71.9185 51.8908 71.4182 51.0403C71.118 50.54 70.6427 50.3649 70.1424 50.54C69.6671 50.7151 69.8172 51.2404 69.8172 51.6406C69.8172 52.6913 69.8172 53.7169 69.8922 54.7675C70.0423 56.9188 70.2174 59.0701 70.3925 61.2214C70.4426 61.6717 70.5676 62.247 71.118 62.247C71.7684 62.247 71.7183 61.5716 71.5933 61.1964C71.168 59.8206 71.4432 58.3947 71.218 56.9939C71.0179 55.7681 71.168 54.4924 71.168 53.2416C72.5688 56.1684 75.5206 58.2196 75.5456 61.8218C75.5456 62.6222 75.6457 63.0225 74.7201 63.3727C72.0936 64.3483 70.5176 66.3245 70.4176 69.1512C70.2925 72.4281 72.5188 75.8052 76.8964 76.2304C77.9971 76.3305 78.0721 76.9558 78.1222 77.6313C78.3223 80.2828 78.5474 82.9094 78.6225 85.561C78.7225 89.2132 78.4474 92.8654 78.1472 96.4926C78.1222 96.9178 78.0722 97.3931 77.5468 97.5932C77.0215 97.7934 76.6463 97.5432 76.3461 97.168C75.5706 96.2424 74.6451 95.4419 73.6945 94.7165C71.8184 93.2907 70.0173 91.5896 67.3657 92.9404C66.9155 93.1656 66.5902 92.8404 66.2651 92.5652C64.7642 91.3895 63.2633 90.2138 61.7373 89.0631C54.3829 83.5098 47.4287 77.4812 41.0249 70.8022C38.7735 68.4507 36.5472 66.1994 37.0725 62.4221C37.3727 60.3209 36.8974 58.1696 36.147 56.1183C35.6717 54.8176 35.0463 53.5918 33.8206 52.8664C33.2953 52.5662 33.0451 52.191 32.87 51.6657C32.1196 49.4143 30.9939 47.4131 29.493 45.562C26.6913 42.1349 21.163 41.7597 18.1362 45.1618C17.836 45.512 17.5608 45.587 17.0855 45.487C16.135 45.2868 15.1844 44.9366 14.1588 45.1618C10.7817 45.9372 8.63045 48.1636 7.22961 51.1904C6.95444 51.7657 6.65427 52.1159 6.05391 52.291C0.67568 53.917 -0.249875 58.2196 0.0503048 62.3971C0.400515 67.0999 2.95204 70.9022 6.00388 74.4043C7.35469 75.9552 9.10574 77.0559 10.3065 78.7319C15.5846 86.0613 21.138 93.1906 27.0915 99.9947C33.5454 107.399 40.3495 114.428 47.7039 120.957C48.3293 121.508 48.4794 121.983 48.2793 122.783C47.904 124.234 48.3043 125.51 49.3549 126.636C52.5068 130.013 56.4341 132.114 60.5866 133.965C62.4878 134.816 64.489 135.266 66.4902 135.691C67.3657 135.891 67.6909 136.316 67.0655 137.117C66.8904 137.342 66.7654 137.617 66.5902 137.842C63.6385 142.245 60.2865 146.373 57.0095 150.525C52.1566 156.679 48.2292 163.283 46.0779 170.862C45.2774 173.664 44.9022 176.516 44.6771 179.392C44.602 180.318 44.9272 181.193 45.3525 181.969C45.6777 182.544 46.3531 182.519 47.0285 182.469C47.2787 182.444 47.7039 182.794 47.779 183.045C48.0291 183.97 48.6795 183.995 49.4299 183.87C49.7802 183.295 49.3049 182.369 50.4806 182.069C54.9333 180.968 59.1108 179.017 63.4133 177.491C64.0137 177.291 64.589 177.041 65.2144 177.241C73.8446 178.842 82.5248 180.093 91.2801 180.818C96.9835 181.293 102.712 181.669 108.44 181.744C114.019 181.794 119.572 181.869 125.15 181.569C131.554 181.243 137.933 180.918 144.137 179.092C144.987 178.842 145.713 179.042 146.288 179.668C146.938 180.368 146.713 181.218 146.638 182.044C146.588 182.644 146.213 183.245 146.613 183.845C147.164 183.87 147.689 183.87 148.239 183.87C149.59 183.87 150.541 183.195 150.816 181.869C151.191 179.843 151.516 177.816 151.591 175.74C151.691 172.763 151.416 169.812 150.866 166.86C149.915 161.632 148.089 156.754 145.613 152.076C142.211 145.622 137.783 139.994 132.03 135.466C131.554 135.091 130.554 134.816 130.779 134.14C130.929 133.665 131.954 133.79 132.58 133.64C140.585 131.914 147.689 128.562 153.467 122.633C154.843 121.207 155.619 119.556 155.293 117.58C155.168 116.83 155.469 116.43 155.919 115.979C158.095 113.803 160.297 111.652 162.373 109.4C166.875 104.522 171.328 99.5944 175.581 94.5164C179.233 90.1638 182.785 85.7361 186.262 81.2584C187.563 79.5824 188.639 77.7563 190.49 76.6056C194.742 73.954 197.819 70.3769 199.42 65.574C200.846 60.9963 199.62 56.4685 195.993 53.6919ZM84.426 8.46473C81.9745 9.49034 79.8232 11.0163 77.5218 12.7173C77.5218 10.2908 78.1972 8.28962 79.3229 6.48854C81.4242 3.06148 84.7011 1.96083 88.5284 2.01086C88.7285 2.01086 88.9537 1.93581 89.0537 2.21097C89.1538 2.51115 88.9537 2.66124 88.7536 2.81134C86.9775 4.21218 85.8018 6.03827 84.8262 8.01446C84.7261 8.16455 84.5761 8.38968 84.426 8.46473ZM94.9323 5.81314C92.3557 6.11332 89.8292 6.63863 87.4528 7.31404C86.6273 7.38908 86.6273 7.0889 86.9525 6.61362C87.7029 5.56299 88.4033 4.48734 89.454 3.71187C91.18 2.38608 94.2318 3.21157 95.2074 5.21277C95.3575 5.53797 95.3825 5.76311 94.9323 5.81314ZM106.214 6.66365C105.939 7.11392 105.564 6.63863 105.238 6.56359C102.862 6.03827 100.436 5.73809 97.9841 5.83815C97.2587 5.86317 96.7834 5.68806 96.3081 5.0877C95.5576 4.11211 94.7572 3.13653 93.6565 2.48614C93.4564 2.36106 93.1562 2.23599 93.2062 1.96082C93.2813 1.66064 93.6065 1.5856 93.8816 1.53557C94.9323 1.36046 95.9829 1.21037 96.8334 1.0853C100.636 1.36046 103.688 2.63623 105.839 5.66305C106.064 5.96323 106.389 6.33845 106.214 6.66365Z" fill="#110D0D"/>
<path d="M64.8141 176.816C68.1161 177.366 71.3931 177.941 74.6951 178.417C77.6469 178.867 80.5736 179.267 83.5254 179.592C87.5778 180.043 91.6553 180.468 95.7327 180.818C98.1842 181.018 100.636 180.993 103.062 181.143C109.641 181.493 116.195 181.468 122.774 181.243C129.028 181.043 135.281 180.818 141.385 179.342C142.061 179.167 142.736 179.017 143.411 178.842C146.088 178.066 147.489 179.342 146.913 182.144C146.788 182.719 146.613 183.27 146.463 183.82C146.038 183.845 145.638 183.845 145.212 183.845C119.597 183.845 93.9566 183.845 68.3413 183.845C67.891 183.845 67.4157 183.82 66.9654 183.795C66.8404 183.67 66.9404 183.87 66.8654 183.745C65.6897 181.644 64.9642 179.392 64.639 177.016C64.6641 176.966 64.7641 176.891 64.8141 176.816Z" fill="#009CD4"/>
<path d="M64.8141 176.816C65.3144 179.217 66.265 181.493 67.0155 183.795C61.1119 183.795 55.2084 183.795 49.3048 183.82C48.9296 182.169 48.9046 182.144 50.4805 181.693C54.8832 180.468 59.0607 178.592 63.3382 177.066C63.8135 176.916 64.2388 176.49 64.8141 176.816Z" fill="#0088B3"/>
<path d="M195.993 53.6923C195.493 53.4421 194.967 53.192 194.467 52.9418C195.368 52.3915 195.968 52.4415 195.993 53.6923Z" fill="#0093DC"/>
<path d="M76.2462 135.841C76.4213 135.541 77.1718 135.666 76.9717 135.191C76.6965 134.591 76.0211 135.016 75.5208 134.916C73.4195 133.49 71.0431 132.59 68.9669 131.089C65.2146 128.387 61.3373 125.785 58.3105 122.208C57.8852 121.708 57.1598 121.283 57.535 120.432C61.2122 116.38 64.3891 111.952 67.0407 107.174C68.7167 104.147 69.8674 100.895 71.0181 97.6685C71.7435 97.5185 72.1438 98.0938 72.594 98.469C76.6965 101.671 79.6983 105.773 82.2748 110.251C83.0503 111.602 83.9008 112.853 85.0515 113.903C85.852 115.804 86.2272 117.781 86.5274 119.807C86.5774 120.207 86.4023 120.907 87.0277 120.882C87.503 120.857 87.2528 120.182 87.3029 119.807C87.503 118.006 87.0777 116.28 86.5774 114.579C86.3023 113.628 86.5274 113.378 87.503 113.403C90.4047 113.453 93.3315 113.328 96.2332 113.428C97.609 113.478 98.1844 112.903 98.5096 111.727C99.3601 108.675 99.9104 105.573 100.986 102.571C101.161 102.096 101.336 101.646 101.486 101.171C101.586 100.82 101.812 100.42 101.336 100.195C100.861 99.9699 100.511 100.245 100.336 100.67C99.8854 101.771 99.3851 102.872 99.0849 104.022C98.4596 106.324 97.8592 108.625 97.459 110.977C97.3339 111.702 97.0837 112.202 96.1081 112.177C92.8312 112.127 89.5542 112.027 86.2772 112.252C85.877 112.277 85.6519 112.127 85.5268 111.777C85.2766 111.002 85.0015 110.226 84.7263 109.451C84.5262 109 84.6513 108.55 84.8014 108.125C85.902 105.073 87.0527 102.046 88.6287 99.2195C89.0539 98.444 89.6293 97.7936 90.4798 97.4684C93.6066 97.2933 96.7335 97.3183 99.8604 97.6185C101.411 97.7686 102.562 98.5691 103.538 99.6948C106.514 103.197 109.091 106.999 111.943 110.601C112.168 110.901 112.393 111.202 112.668 111.427C113.343 112.027 113.919 112.052 114.494 111.202C115.62 109.576 116.57 107.85 117.971 106.424L117.946 106.399C117.896 106.849 118.096 107.174 118.372 107.524C122.549 113.103 125.176 119.407 127.002 126.086C127.627 128.337 128.152 130.588 128.578 132.89C128.027 132.965 127.752 132.564 127.377 132.464C127.002 132.364 126.501 132.164 126.276 132.665C126.076 133.09 126.451 133.365 126.752 133.565C127.777 134.266 128.828 134.916 129.853 135.616C135.657 139.519 139.909 144.822 143.412 150.775C146.463 156.004 148.54 161.632 149.615 167.561C150.366 171.688 150.541 175.865 149.915 180.143C148.615 179.593 147.814 178.567 146.764 177.842C143.662 175.715 140.06 174.74 136.532 173.639C133.831 172.789 131.054 172.188 128.302 171.613C124.55 170.812 120.723 170.412 116.921 170.062C110.792 169.462 104.638 169.512 98.5096 169.662C87.0277 169.937 75.7459 171.563 64.7894 175.065C64.7143 175.09 64.6143 175.065 64.5392 175.04C63.8388 173.664 64.1139 172.163 64.239 170.762C64.5642 167.385 64.6893 163.958 65.5148 160.631C67.1908 153.827 69.1169 147.123 72.519 140.945C73.5446 139.118 74.9204 137.492 76.2462 135.841Z" fill="white"/>
<path d="M119.022 60.7708C119.272 60.6707 119.522 60.5707 119.772 60.4956C120.798 60.5957 121.623 61.196 122.524 61.6213C124.775 62.6969 126.877 64.0477 128.853 65.5737C129.328 65.9489 129.853 66.3241 130.003 66.9995C129.953 67.3998 128.953 67.9751 130.204 68.1752C130.879 68.3503 131.404 67.9251 131.955 67.6749C132.88 67.2246 133.806 66.9245 134.831 67.0746C136.632 67.3497 137.483 69.0007 136.657 70.6017C136.207 71.4772 135.657 72.3277 135.207 73.2282C134.581 74.529 133.956 75.8298 133.706 77.3057C133.255 80.0073 131.129 81.9085 128.377 81.133C128.252 81.108 128.127 81.133 128.027 81.183C127.127 81.0079 126.526 80.3575 125.876 79.8072C125.626 79.6071 125.326 79.1318 124.925 79.532C124.6 79.8572 124.75 80.2825 124.95 80.6827C125.201 81.158 125.701 81.3331 126.051 81.6833C126.451 82.0586 126.726 82.3337 126.226 82.9091C123.725 85.8859 120.998 88.5875 117.671 90.6387C113.368 93.2653 108.791 95.0664 103.663 94.9663C99.9353 94.8913 96.5583 93.6155 93.5065 91.4892C91.2051 90.0634 90.3046 87.6869 89.5291 85.3355C87.8031 79.9323 88.5785 74.7041 91.4052 69.8512C92.681 67.6499 94.7822 66.3491 97.1337 65.4486C99.9353 64.3729 102.837 64.0728 105.839 64.2228C108.065 64.3229 110.317 64.3479 112.568 64.1978C115.245 63.9727 117.396 62.847 119.022 60.7708Z" fill="#E4B27C"/>
<path d="M139.034 97.9186C144.437 102.171 148.89 107.224 152.192 113.278C152.992 114.729 153.517 116.305 153.918 117.881C154.343 119.507 153.417 120.732 152.367 121.858C148.114 126.361 142.886 129.287 137.058 131.164C134.981 131.839 132.88 132.389 130.704 132.689C129.978 132.789 129.828 132.564 129.728 131.864C128.903 127.211 127.602 122.683 125.776 118.306C125.376 117.355 124.95 116.43 124.525 115.479C124.225 114.804 124.125 114.278 125.175 114.403C125.876 114.479 126.576 114.328 127.277 114.203C129.078 113.853 129.278 113.628 128.953 111.802C128.653 110.101 128.327 108.4 128.002 106.699C127.727 106.073 128.202 105.773 128.577 105.498C131.704 103.097 134.781 100.645 137.908 98.2438C138.233 98.0186 138.558 97.7435 139.034 97.9186Z" fill="white"/>
<path d="M76.246 135.842C76.146 136.717 75.5456 137.367 75.0453 137.968C72.7439 140.669 71.3681 143.846 70.0423 147.048C68.0161 152.026 66.6152 157.229 65.4896 162.483C65.0893 164.284 65.1393 166.16 64.8392 168.011C64.4639 170.337 64.489 172.714 64.564 175.065C59.1858 176.966 54.0327 179.518 48.3793 180.668C46.0279 181.144 46.0029 181.194 46.0779 178.817C46.253 173.839 47.7039 169.162 49.6801 164.634C52.5818 158.03 56.7093 152.201 61.3371 146.698C63.9136 143.646 66.215 140.419 68.3913 137.067C68.7665 136.492 69.1167 136.242 69.8922 136.292C72.0185 136.517 74.1698 136.442 76.246 135.842Z" fill="#E1D8D4"/>
<path d="M108.54 46.7376C108.866 52.1909 103.587 58.3696 96.7083 58.5197C91.5802 58.6198 86.5522 55.693 84.8511 51.0152C83.3002 46.8127 84.651 42.31 87.5027 39.3332C91.305 35.4058 97.0084 34.4303 102.036 36.5565C105.413 38.0074 108.891 42.4851 108.54 46.7376Z" fill="white"/>
<path d="M123.624 53.7922C123.149 52.7416 122.924 51.6409 122.048 50.8405C120.673 49.6147 119.147 49.1144 117.296 49.4146C114.969 49.7898 112.718 50.4902 110.391 50.9155C109.666 51.0406 109.141 51.1656 109.416 49.9649C110.191 46.788 109.966 43.6361 108.265 40.7344C107.89 40.084 108.14 39.7588 108.515 39.3335C110.442 37.2573 112.818 36.0816 115.62 35.7064C118.947 35.2561 121.848 36.1316 124.35 38.3079C127.702 41.2097 128.978 45.7124 126.326 50.5403C125.651 51.791 124.825 52.8917 123.624 53.7922Z" fill="white"/>
<path d="M57.5599 120.432C58.0352 121.808 59.0608 122.859 60.0864 123.759C64.6141 127.661 69.1919 131.464 74.6952 133.99C75.1204 134.19 75.5457 134.365 75.5457 134.941C70.2175 135.691 65.1644 134.541 60.2615 132.539C57.1096 131.239 54.2579 129.463 51.6063 127.336C50.5807 126.511 50.5807 126.361 51.7314 125.66C54.0077 124.284 55.6837 122.258 57.5599 120.432Z" fill="#E1D8D4"/>
<path d="M119.022 60.7715C118.171 62.9728 116.295 63.7983 114.219 64.1985C110.466 64.899 106.639 64.2736 102.862 64.4737C98.9845 64.6988 95.3323 65.7745 92.5807 68.7763C90.6795 70.8525 89.804 73.5041 89.3287 76.2058C88.8534 78.9324 88.7534 81.7091 89.6289 84.4357C90.4544 87.0122 91.48 89.4887 93.5062 91.4149C89.879 89.2636 87.4026 86.1617 86.552 82.0342C85.3263 76.0056 87.2024 70.8025 91.53 66.55C93.9815 64.1485 97.1334 63.0729 100.435 62.4725C103.712 61.8721 107.014 62.0723 110.316 62.3224C112.818 62.4975 115.319 61.9722 117.721 61.1467C118.146 60.9966 118.596 60.8966 119.022 60.7715Z" fill="#BF895D"/>
<path d="M139.034 97.9185C136.708 99.3443 134.706 101.22 132.505 102.821C131.179 103.797 129.928 104.873 128.603 105.873C128.277 106.123 128.002 106.324 127.977 106.724C127.252 104.522 126.476 102.321 125.801 100.12C125.576 99.4194 125.301 98.869 124.725 98.3938C123.95 97.7684 123.65 97.168 124.7 96.3425C125.851 95.417 126.601 94.0661 127.727 93.0655C128.328 92.5402 128.828 92.3901 129.603 92.6653C133.055 93.891 136.232 95.542 139.034 97.9185Z" fill="#E1D8D4"/>
<path d="M123.324 98.894C124.125 99.3693 124.45 100.145 124.775 100.97C126.151 104.372 126.801 107.949 127.702 111.477C127.927 112.377 127.652 113.028 126.626 113.153C125.726 113.253 124.8 113.278 123.9 113.353C123.374 113.403 123.349 112.927 123.174 112.652C121.973 110.776 120.873 108.85 119.497 107.074C119.097 106.574 118.721 106.073 117.971 106.424L117.996 106.449C118.621 104.898 119.672 103.622 120.573 102.246C120.873 101.771 121.348 101.371 121.223 100.695C121.723 99.8446 122.224 99.0191 123.324 98.894Z" fill="white"/>
<path d="M90.5296 97.4934C88.1782 99.8198 87.2277 102.922 86.0269 105.848C85.5516 107.024 85.1764 108.275 84.7512 109.476C82.9501 105.748 80.7237 102.221 78.0972 98.7942C82.3998 98.2188 86.4272 97.4934 90.5296 97.4934Z" fill="#E1D8D4"/>
<path d="M85.0512 113.928C83.2501 113.202 82.6998 111.451 81.8243 110C78.9726 105.247 75.6706 100.895 71.0428 97.7179C71.2179 96.6673 71.5681 95.6417 70.9177 94.541C71.8683 94.6411 72.2435 95.2665 72.7188 95.6667C78.3972 100.67 82.7248 106.623 85.0512 113.928Z" fill="#E1D7D3"/>
<path d="M128.002 81.1583C128.277 80.8831 128.628 80.9832 128.953 80.9832C131.554 80.9081 133.03 79.8075 133.405 77.256C133.731 75.0796 134.806 73.2786 135.807 71.4525C136.807 69.5763 136.958 68.8759 136.107 67.9754C135.357 67.1749 133.706 67.1499 132.28 67.8503C131.629 68.1755 131.029 69.001 130.204 68.1755C131.905 67.1749 133.48 65.8991 135.607 65.9992C137.083 66.0492 138.133 67.425 137.858 68.8759C137.658 69.9516 137.158 70.9021 136.582 71.8027C135.307 73.8039 134.256 75.8301 133.881 78.2566C133.631 79.9576 132.68 81.3334 130.754 81.6836C129.803 81.8087 128.903 81.4335 128.002 81.1583Z" fill="#EFD4B8"/>
<path d="M123.324 98.8943C122.624 99.4947 121.924 100.095 121.223 100.695C120.323 100.52 119.997 101.271 119.572 101.796C118.847 102.697 118.221 103.647 117.421 104.773C116.846 102.822 116.996 101.021 116.996 99.2445C116.996 98.9944 117.021 98.7442 117.371 98.7192C119.222 98.5941 121.073 98.1439 122.899 98.6942C123.074 98.6942 123.199 98.8193 123.324 98.8943Z" fill="#E2D7D3"/>
<path d="M75.1704 52.6415C75.4455 54.1424 75.6707 55.6684 75.9208 57.2693C76.4211 56.9191 76.4461 56.5189 76.5212 56.1186C76.9214 53.8423 77.2716 51.5409 78.0721 49.3646C78.5724 47.9637 79.3979 47.8887 80.2984 49.0894C80.4986 49.3395 80.6987 49.6147 80.8238 49.9149C81.8744 52.2913 82.825 54.7178 83.4253 57.2443C83.5504 57.7196 83.6004 58.2199 83.0751 58.42C82.4747 58.6451 82.2996 58.0948 82.1746 57.6696C81.7743 56.4188 81.4741 55.118 80.9989 53.8923C80.5236 52.6415 80.2734 51.2407 79.2978 50.115C78.7725 50.9655 78.7475 51.766 78.5224 52.4914C77.822 54.9429 77.947 57.5445 76.5962 59.8709C75.9208 61.0216 76.8464 62.6475 78.0721 63.0978C78.7725 63.348 79.4229 63.7232 80.0483 64.1484C80.5486 64.4987 80.7737 64.9489 80.2734 65.4742C80.2734 66.675 80.0983 67.7506 78.7225 68.1258C78.3473 68.7012 79.0977 69.2765 78.7225 69.9769C78.0721 69.4266 77.6469 68.451 76.5462 69.0014C75.4705 69.5517 76.1209 70.5773 75.8958 71.4778C75.1954 71.0025 74.9452 70.3772 75.1954 69.8018C75.6957 68.6511 75.6456 68.0508 74.1948 68.2009C74.0697 68.2259 73.9696 67.9757 73.8696 67.8507C73.2192 67.6505 72.7439 67.0752 72.0685 66.9001C71.7433 67.3504 71.5932 67.8507 71.5432 68.401C70.9929 73.0038 75.6457 76.2557 79.9232 74.1044C80.3485 73.8793 80.8488 73.404 81.199 74.0794C81.4741 74.6547 80.8738 74.9299 80.4986 75.2051C80.3235 75.3302 80.1484 75.4302 79.9482 75.5053C79.2728 75.7804 79.1477 76.1807 79.2228 76.9561C79.8482 83.36 80.0233 89.7888 79.2228 96.1927C79.1477 96.743 79.1728 96.9932 79.7731 96.9181C80.1483 96.8931 80.5236 96.9181 80.8988 96.8681C84.601 96.2927 88.3033 96.0676 92.0555 96.0926C92.0305 94.6668 92.0555 93.2409 91.5552 91.8901C90.8298 91.2147 90.0793 90.5643 89.4039 89.8389C86.4271 86.687 84.8762 82.9347 84.9512 78.5821C85.0013 74.5797 86.227 70.9525 88.5784 67.7006C88.8035 67.2003 88.9787 66.675 88.8786 66.1246C88.5534 64.1484 88.7535 62.1472 88.7035 60.146C88.6785 59.0954 88.6284 58.0698 88.0781 57.1442C87.903 56.9691 87.7529 56.769 87.5778 56.6189C83.5504 53.5921 81.8994 47.4134 83.8256 42.7356C84.4759 41.1346 85.5266 39.8088 86.6022 38.508C86.9274 37.8577 86.7023 37.1823 86.5772 36.5569C86.277 34.9559 86.0019 33.38 85.7767 31.779C85.2764 28.0268 85.1764 24.2495 85.7517 20.4972C86.4521 15.9195 89.0037 12.3173 92.0805 9.01535C92.6058 8.46501 93.4563 8.18985 93.5814 7.28931C91.5802 7.4394 89.6791 7.98973 87.803 8.59009C85.7017 9.24048 85.3765 9.74078 85.3515 11.9421C85.3265 13.0177 85.3265 14.0934 85.3265 15.1941C85.3265 15.5443 85.2514 15.8945 84.8262 15.9195C84.4759 15.9445 84.3008 15.6443 84.2008 15.3942C84.1007 15.044 84.0507 14.6687 84.0507 14.2935C84.0507 13.1178 84.0507 11.9671 84.0757 10.7914C84.1007 10.2411 83.9006 10.116 83.4253 10.3662C81.5242 11.4168 79.6981 12.5425 78.1972 14.1184C77.7219 14.6187 77.5968 15.119 77.5718 15.7944C77.5218 16.4198 78.3973 17.3453 77.3467 17.6205C76.4962 17.8456 76.7713 16.5699 76.171 16.2447C75.7707 16.3197 75.5956 16.695 75.3955 16.9701C72.4938 20.9725 70.9929 25.4752 70.8678 30.4032C70.7677 34.5307 71.6933 38.5331 72.7439 42.4854C73.5694 45.9125 74.545 49.2395 75.1704 52.6415Z" fill="#E5A219"/>
<path d="M56.6093 117.355C53.6825 114.353 50.7557 111.326 47.829 108.325C42.7009 103.121 37.5978 97.8683 32.5448 92.5651C29.1428 88.988 25.5906 85.5859 22.5888 81.6336C19.9122 78.1315 18.7365 74.1791 18.3613 69.9265C18.2362 68.4757 17.911 67.1499 17.0855 65.9742C15.4846 69.6514 11.6823 70.1017 8.63045 69.1761C7.02949 68.6758 5.82877 67.6252 4.90322 66.2493C3.75253 64.5233 4.27784 62.422 3.67748 60.5709C3.65247 60.4959 3.80256 60.3708 3.8776 60.2707C3.77754 58.8949 2.92703 57.8443 2.35168 56.6936C1.00087 58.945 1.10094 61.4214 1.55121 63.7979C2.30166 67.8003 4.65307 70.9522 7.30466 73.9289C8.68049 75.4799 10.4816 76.5805 11.6573 78.3316C15.8098 84.4603 20.4125 90.2137 25.1904 95.8421C30.7687 102.421 36.6723 108.75 42.9511 114.678C45.8528 117.43 48.7796 120.107 51.7313 122.808C52.0815 123.133 52.4568 123.484 53.0071 122.983C54.6831 121.432 56.3091 119.857 57.835 118.156C57.2096 118.181 56.9345 117.705 56.6093 117.355Z" fill="#E5A219"/>
<path d="M166.976 54.3174C165.5 57.1441 165.275 60.1709 165.5 63.2478C165.6 64.4735 165.15 65.3991 164.274 66.2245C162.098 68.2257 159.971 70.227 157.82 72.2532C152.917 76.8559 147.714 81.1085 142.411 85.236C139.584 87.4373 136.733 89.5386 133.856 91.6648C133.13 92.1901 133.055 92.4403 133.931 92.9156C136.082 94.0663 138.083 95.4921 139.984 97.018C140.385 96.5928 140.735 96.1175 141.16 95.7423C144.437 92.7655 147.764 89.8137 151.041 86.8369C153.042 85.0358 154.993 83.1847 157.02 81.4087C159.921 78.8822 162.873 76.3807 165.525 73.579C167.476 71.5027 168.977 69.1013 168.702 66.1495C168.527 64.2484 168.577 62.3472 168.502 60.4461C168.452 59.2203 168.802 58.0697 169.302 56.969C169.677 56.0935 170.128 55.268 170.403 54.3424C170.828 52.9666 171.829 52.1411 173.229 51.7909C173.755 51.6658 174.255 51.4907 174.755 51.3406C174.055 51.2906 173.355 51.1655 172.654 51.1905C170.103 51.1655 168.427 51.5407 166.976 54.3174Z" fill="#E5A219"/>
<path d="M141.485 176.891C136.432 174.915 131.254 173.514 125.901 172.564C120.147 171.538 114.344 170.988 108.515 170.913C102.962 170.838 97.3838 170.863 91.8304 171.338C88.4784 171.638 85.1514 171.963 81.8494 172.464C77.6469 173.114 73.5194 174.09 69.417 175.19C68.7666 175.365 67.9911 175.465 67.4158 176.016C70.0423 176.666 72.6939 176.866 75.2705 177.342C75.4206 177.066 75.6707 176.916 75.9459 176.816C77.6719 176.241 79.3729 175.616 81.149 175.14C83.9007 174.39 86.7274 173.965 89.5541 173.489C93.3563 172.864 97.1336 172.138 100.961 171.963C104.563 171.788 108.19 171.913 111.792 171.913C112.043 171.913 112.293 171.913 112.493 172.113C112.668 172.464 112.993 172.589 113.343 172.664C113.593 172.188 113.969 172.088 114.469 172.188C116.77 172.614 119.097 173.064 121.423 173.389C126.176 174.09 130.879 174.89 135.457 176.416C136.933 176.916 138.433 177.442 139.734 178.342C140.735 178.117 141.76 178.042 142.686 177.567C142.386 177.066 141.91 177.041 141.485 176.891Z" fill="#E5A219"/>
<path d="M191.04 54.2171C189.189 54.8425 187.738 56.0432 186.362 57.369C184.937 58.7448 184.536 60.4709 184.186 62.347C183.936 63.7478 184.186 64.8235 185.187 65.774C185.462 64.8735 185.687 63.9479 185.987 63.0474C187.763 57.8693 192.241 55.668 196.769 56.2183C195.393 54.1421 193.342 53.4166 191.04 54.2171Z" fill="#E5A219"/>
<path d="M182.785 45.8618C182.285 45.2865 181.709 44.8362 181.009 44.536C176.506 42.5348 172.729 45.6117 171.178 49.7391C172.729 49.7391 174.255 49.6391 175.706 50.2144C176.006 49.514 176.531 49.0137 177.082 48.5134C178.632 47.1126 180.534 46.9625 182.435 46.7373C182.935 46.5622 183.235 46.3621 182.785 45.8618Z" fill="#E5A219"/>
<path d="M188.638 49.2639C189.539 49.364 190.389 49.7142 191.265 49.9644C189.089 46.6874 185.837 45.8119 183.01 47.8131C181.584 48.8137 180.583 50.1645 180.083 51.8655C179.933 52.3908 179.933 52.8161 180.383 53.1913C180.834 53.5915 181.259 54.0668 181.684 54.5171C182.535 54.1169 182.71 53.2413 183.085 52.5409C184.436 49.9644 186.062 48.9638 188.638 49.2639Z" fill="#E5A219"/>
<path d="M8.80566 52.2661C10.7568 53.1417 12.4328 54.3924 13.9337 55.9183C14.9093 56.9189 15.6598 58.0946 16.5353 59.4204C16.8355 58.72 17.0606 58.2197 17.2607 57.6944C15.5347 55.6432 13.7336 53.642 12.1076 51.5157C10.9569 49.9898 11.3822 48.5889 13.1583 47.8135C14.2089 47.3632 15.3346 47.088 16.3102 46.4626C16.2101 46.3876 16.11 46.2875 16.01 46.2625C12.3328 45.7372 9.58113 48.639 8.33037 51.4406C8.15527 51.8659 8.3804 52.091 8.80566 52.2661Z" fill="#E5A219"/>
<path d="M19.2617 46.5877C20.3374 47.4382 21.2129 48.4888 21.8633 49.7396C22.2635 50.49 22.1135 51.7658 22.9139 51.9659C23.6144 52.141 24.5149 51.4906 25.3154 51.1905C25.0652 50.7652 24.765 50.365 24.5399 49.9397C23.064 47.063 23.2641 45.9623 25.5655 44.2613C23.2641 43.2357 21.2129 43.8861 19.2868 45.2369C18.7364 45.6371 18.5613 46.0374 19.2617 46.5877Z" fill="#E5A219"/>
<path d="M18.7864 63.2973C18.9115 60.7208 19.837 58.4444 21.6381 56.5933C22.8889 55.3175 24.2147 54.2168 26.0157 53.6415C28.4422 52.8911 30.6685 53.4664 32.9199 54.1918C32.9449 54.0918 32.9949 53.9917 33.0199 53.9167C30.7436 52.4658 28.2421 52.1906 25.6655 52.6409C21.8632 53.3163 19.6369 55.9929 17.9859 59.1448C17.1854 60.6457 17.1604 62.4218 18.3111 63.9477C18.5863 63.8476 18.7864 63.6225 18.7864 63.2973Z" fill="#E5A219"/>
<path d="M115.52 60.4707C117.621 59.9704 119.722 59.445 120.998 57.4438C120.498 57.4438 120.022 57.4689 119.547 57.694C116.445 59.0198 113.218 59.445 109.841 59.0198C108.065 58.7947 106.239 58.9197 105.038 60.6708C108.515 60.8709 112.018 61.2962 115.52 60.4707Z" fill="#E5A219"/>
<path d="M12.3827 68.1506C13.6085 67.8754 14.7091 67.4251 15.3595 66.2244C13.2082 67.0999 11.207 66.6246 9.30588 65.474C8.90564 66.5746 8.20521 65.9492 7.65488 65.6991C6.90443 65.3989 6.45416 64.6234 5.65368 64.3733C5.47858 64.6985 5.65368 64.9486 5.77876 65.2238C6.97948 67.5752 9.6811 68.7759 12.3827 68.1506Z" fill="#E5A219"/>
<path d="M130.003 66.9749C127.352 64.4984 124.225 62.7224 120.948 61.1715C120.548 60.9713 120.172 60.7212 119.772 60.496C120.498 59.9707 121.223 59.9457 122.049 60.346C124.9 61.7218 127.602 63.3227 130.028 65.374C130.679 65.9493 130.929 66.4746 130.003 66.9749Z" fill="#EED4B7"/>
<path d="M198.044 57.9949C197.869 59.3957 198.119 60.8216 197.844 62.2224C196.943 66.8502 193.942 69.927 190.264 72.4536C187.838 74.1045 185.637 75.8056 183.911 78.257C180.834 82.6347 177.507 86.8622 174.055 90.9647C170.678 95.0171 167.05 98.8444 163.498 102.747C160.271 106.324 157.094 109.951 153.517 113.203C153.742 113.678 154.018 114.154 154.168 114.654C154.418 115.479 154.743 115.554 155.343 114.904C156.019 114.179 156.769 113.503 157.445 112.778C161.647 108.25 165.9 103.747 169.952 99.0946C175.506 92.7157 180.884 86.1868 185.962 79.4327C186.912 78.182 187.688 76.7311 189.214 75.9056C193.742 73.4291 196.743 69.6269 198.294 64.7239C199.02 62.5226 199.02 60.2212 198.044 57.9949Z" fill="#FFE493"/>
<path d="M44.7022 76.1051C41.6504 73.2033 38.7487 70.2015 36.2472 66.7995C35.972 66.3992 35.7969 66.049 35.7969 65.5487C35.897 63.0472 35.8469 60.5457 35.2466 58.1193C34.8713 56.5934 34.7463 54.7923 33.0202 53.9167C32.9452 53.9918 32.9202 54.0919 32.9202 54.1919C33.6456 55.4927 34.321 56.7935 34.5962 58.2944C34.9714 60.5457 34.6212 62.747 34.1959 64.9234C33.8958 66.4493 33.9708 67.8001 35.1215 69.0759C36.7475 70.9019 38.4235 72.678 40.2496 74.304C43.2764 77.0306 46.1281 79.9324 49.23 82.584C52.607 85.4607 56.1341 88.1873 59.6612 90.8639C61.5374 92.2898 63.6136 93.4405 65.99 93.9158C64.239 92.5399 62.5129 91.1891 60.7619 89.7883C55.2586 85.4357 49.8053 80.958 44.7022 76.1051Z" fill="#FFE493"/>
<path d="M123.924 31.4286C122.624 30.7031 122.424 29.5524 122.274 28.3767C121.723 23.874 120.272 19.7465 117.596 16.0693C115.269 12.9174 112.443 10.3659 108.59 9.24023C108.315 9.11515 108.265 9.24023 108.29 9.49038C109.341 10.2909 110.491 10.9913 111.467 11.8668C116.795 16.7698 119.247 23.0735 120.197 30.0527C120.322 31.0783 120.648 31.6787 121.548 32.204C123.049 33.0545 123.624 34.4053 123.349 35.9313C123.649 36.1564 123.975 36.3565 124.25 36.5816C124.95 37.182 125.275 36.7818 125.475 36.1314C126.026 34.5054 125.425 32.2791 123.924 31.4286Z" fill="#FFE493"/>
<path d="M115.745 95.9423C115.945 93.2908 115.945 93.2908 113.569 94.2163C113.468 94.2663 113.368 94.3664 113.268 94.4164C113.168 96.6178 113.644 98.769 113.794 100.945C113.994 103.622 114.269 106.274 114.519 108.95C115.345 108 116.345 107.099 116.195 105.673C115.845 102.446 115.495 99.2193 115.745 95.9423Z" fill="#FFE493"/>
<path d="M117.571 50.6396C115.07 51.315 112.518 51.8153 109.966 52.1905C108.841 52.3406 108.115 52.6908 107.765 53.7665C110.492 53.5914 113.118 52.966 115.87 52.8409C118.872 52.6908 120.848 53.9416 121.348 56.9934C122.174 56.0678 122.124 54.9172 121.999 53.8165C121.724 51.4151 119.272 50.1893 117.571 50.6396Z" fill="#FFE493"/>
<path d="M176.556 63.6726C178.132 64.6232 179.758 64.6982 181.359 63.7727C182.985 62.8221 183.135 61.2211 182.985 59.5201C182.91 58.6446 182.46 57.9192 182.01 57.1687C181.734 57.5189 181.784 57.9442 181.709 58.3444C181.509 59.32 181.334 60.2956 180.709 61.1211C179.558 62.597 177.557 62.8971 175.506 61.9716C175.105 61.7965 174.755 61.1961 174.205 61.6964C174.83 62.5719 175.681 63.1473 176.556 63.6726Z" fill="#FFE493"/>
<path d="M27.5168 60.3959C26.0909 62.5972 24.1397 63.823 21.5132 63.9981C20.8378 64.0481 20.2124 64.3233 20.1874 65.1738C20.5376 65.574 21.0129 65.499 21.4631 65.499C23.9146 65.499 25.7157 64.1732 27.3167 62.5222C28.0671 61.7467 28.4423 60.7211 29.2928 60.0457C28.5424 59.4703 27.967 59.6955 27.5168 60.3959Z" fill="#FFE493"/>
<path d="M124.2 55.0174C123.799 55.0174 123.499 55.2425 123.499 55.7178C123.574 57.0436 123.374 58.3944 123.724 59.7202C124.65 60.4207 124.95 60.2456 125.1 59.0448C125.225 57.8941 125.025 56.8435 124.775 55.7428C124.675 55.4177 124.6 54.9924 124.2 55.0174Z" fill="#FFE493"/>
<path d="M49.53 123.884C49.6551 123.634 49.2799 123.034 49.9053 123.109C50.4806 123.184 51.0309 123.584 51.0809 124.209C51.156 124.835 50.5056 125.11 50.1054 125.085C49.455 125.06 49.5801 124.384 49.53 123.884Z" fill="#D7CDCA"/>
<path d="M69.0166 93.6409C69.5169 93.6409 69.8671 93.916 70.0172 94.3913C70.0672 94.5664 70.0672 94.8666 69.767 94.8166C69.2667 94.7415 68.7914 94.5164 68.5913 94.0411C68.4412 93.6909 68.7914 93.6909 69.0166 93.6409Z" fill="#D0C6C2"/>
<path d="M148.564 181.344C148.964 181.669 149.44 181.869 149.09 182.419C148.99 182.594 148.764 182.794 148.589 182.644C148.164 182.244 148.564 181.844 148.564 181.344Z" fill="#EFEBEB"/>
<path d="M131.579 71.2524C130.954 72.0779 130.129 72.7283 129.678 73.6539C129.278 74.4794 129.003 75.455 129.778 76.1804C130.504 76.8808 131.429 76.8058 132.255 76.1804C132.305 77.0309 131.93 77.6813 131.104 77.8564C130.129 78.0815 129.278 77.7313 128.678 76.9309C127.452 75.2799 128.302 72.4532 130.304 71.5776C130.679 71.4276 131.129 71.3775 131.579 71.2524Z" fill="#BF8A5D"/>
<path d="M69.1418 96.0425C68.0912 95.3421 67.0406 94.6417 65.9899 93.9412C64.1138 92.9406 62.0375 92.3153 60.3615 90.9895C56.0089 87.5624 51.5312 84.3355 47.4538 80.5582C46.0279 79.2324 44.6021 77.8816 43.1512 76.5558C40.5747 74.1544 37.848 71.903 35.5717 69.1514C34.471 67.8256 34.1458 66.4748 34.521 64.8988C34.8462 63.473 35.0714 62.0221 35.0714 60.5712C35.0964 58.1948 34.6711 55.9434 32.9951 54.0923C30.1434 52.6164 27.1916 52.3913 24.3899 53.9672C21.2881 55.7183 19.1868 58.3199 18.5614 61.947C18.4614 62.5974 18.4113 63.2728 18.2863 63.9232C18.6865 64.6487 19.3119 65.0489 20.1374 65.149C20.6127 64.7737 21.0629 64.2985 21.7383 64.2484C24.2899 64.0483 26.166 62.6975 27.6419 60.7213C28.0421 60.171 28.5674 59.8958 29.2428 59.9959C30.3935 60.0709 30.1434 60.7213 29.7431 61.3467C28.6175 63.1227 27.1916 64.5986 25.3405 65.6493C24.8902 65.8994 24.7151 66.0495 24.8652 66.6749C25.3155 68.526 25.0904 70.3771 24.1648 72.0531C23.9647 72.4033 23.7145 73.0537 23.2142 72.8036C22.789 72.6034 23.1142 72.0781 23.2643 71.7029C23.7145 70.4521 23.9147 69.1514 23.7896 67.8006C23.7145 66.95 23.4144 66.4998 22.3887 66.6499C20.7628 66.875 19.2118 66.6499 17.911 65.4491C17.2356 64.8238 17.1106 65.3241 17.0355 65.8994C17.1106 67.0251 17.9611 67.9506 17.9361 69.1013C17.911 70.7273 18.4364 72.3033 18.6115 73.9042C19.0617 77.8066 21.4632 80.7834 23.7646 83.7101C26.8664 87.6625 30.5687 91.1145 34.0958 94.6917C39.1238 99.8198 44.0267 105.098 49.2048 110.101C49.405 110.301 49.6051 110.526 49.8052 110.751C51.8814 113.253 54.3329 115.404 56.6093 117.706C56.9095 118.006 57.2347 118.431 57.785 118.106C59.411 116.355 60.8869 114.454 62.2877 112.502C65.5647 107.925 67.841 102.897 69.3669 97.5184C69.5421 97.0181 69.7922 96.4928 69.1418 96.0425Z" fill="#F9CC03"/>
<path d="M198.044 57.9943C197.819 57.2689 197.419 56.6435 196.794 56.1932C196.418 55.9431 196.043 55.6929 195.543 55.7179C191.841 55.868 188.814 57.2939 186.863 60.4958C185.887 62.0717 185.037 63.7728 185.212 65.7489C186.913 67.1748 188.839 67.6501 190.965 66.9247C192.416 66.4244 193.392 65.3737 193.967 63.6727C192.866 64.2981 192.216 65.2486 191.065 65.2236C190.79 65.2236 190.44 65.3737 190.29 65.0235C190.165 64.6733 190.54 64.4982 190.74 64.3731C192.416 63.3975 193.817 62.1468 194.968 60.5708C195.143 60.3207 195.368 60.0956 195.693 60.2957C196.068 60.4958 195.993 60.821 195.843 61.1712C195.668 61.5965 195.443 61.9467 195.443 62.447C195.443 65.2737 193.467 67.6751 190.265 68.3755C187.363 69.0259 184.186 67.5 183.21 65.0235C182.985 64.4232 182.71 64.4231 182.21 64.7233C181.134 65.3987 179.933 65.849 178.683 65.6239C177.907 65.4738 177.557 65.7489 177.107 66.2492C175.981 67.475 175.181 68.8008 175.181 70.5518C175.181 70.9521 175.056 71.5524 174.405 71.4524C173.78 71.3523 174.005 70.827 173.98 70.4518C173.905 68.7007 174.655 67.2248 175.731 65.9241C176.281 65.2486 176.356 64.8984 175.506 64.4232C173.48 63.2975 172.179 61.4964 171.103 59.4952C170.903 59.12 170.528 58.6447 171.128 58.3195C171.704 58.0193 171.879 58.5947 172.154 58.9449C172.829 59.8954 173.33 60.9211 174.23 61.6965C174.58 61.7215 174.83 61.9717 175.106 62.1218C178.408 63.7728 181.309 62.3719 182.01 58.7447C182.11 58.2194 182.085 57.6691 182.035 57.1438C180.359 54.2671 178.007 52.1908 174.755 51.2402C174.455 51.4153 174.105 51.3403 173.78 51.3653C171.804 51.5404 170.603 52.6411 170.003 54.4672C169.902 54.7924 169.852 55.1176 169.677 55.3927C167.776 58.4195 168.101 61.7966 168.327 65.0986C168.427 66.5494 168.352 67.8752 167.901 69.251C167.276 71.0771 166.075 72.503 164.774 73.8538C161.297 77.3809 157.47 80.5078 153.818 83.8348C149.565 87.7372 145.263 91.5895 140.985 95.4668C140.535 95.867 139.909 96.1922 140.035 96.9427C145.513 101.545 150.266 106.749 153.593 113.152C154.293 113.202 154.593 112.627 154.994 112.227C159.146 108.249 162.898 103.897 166.751 99.6693C169.702 96.4424 172.679 93.2655 175.431 89.8634C176.656 88.3375 177.807 86.7616 179.008 85.2106C180.959 82.7091 182.985 80.2827 184.761 77.6811C185.762 76.1802 186.988 75.0045 188.464 74.0289C189.914 73.0783 191.39 72.1028 192.716 70.9771C196.619 67.575 199.045 63.4976 198.044 57.9943Z" fill="#F9CC03"/>
<path d="M87.4028 37.8326C89.7793 35.8815 92.4809 34.5056 95.5828 34.2805C99.7603 33.9803 103.412 35.3061 106.414 38.2579C107.015 38.8332 107.365 38.8583 107.915 38.2329C109.341 36.5819 111.192 35.6063 113.243 34.9809C116.745 33.9053 120.097 34.4056 123.349 35.9565C123.9 35.6313 123.8 35.106 123.675 34.6307C123.374 33.5551 122.899 32.5795 121.874 32.0292C121.023 31.5789 120.673 30.9285 120.548 29.9529C119.772 24.0243 117.771 18.5711 113.919 13.9183C112.418 12.0922 110.717 10.4412 108.516 9.39057C108.115 9.1154 107.615 9.04036 107.29 8.66513C102.837 6.98912 98.2594 6.58888 93.5816 7.2893C92.2307 8.41498 90.98 9.64072 89.8543 11.0416C87.0776 14.4436 85.3766 18.2709 85.1015 22.6485C84.7763 28.0017 85.3766 33.2799 86.5774 38.508C86.8275 38.3079 87.1027 38.0828 87.4028 37.8326Z" fill="#F9CC03"/>
<path d="M137.933 176.991C134.706 175.59 131.329 174.69 127.902 174.064C123.625 173.289 119.272 172.739 114.994 171.938C114.369 171.813 113.744 171.763 113.243 172.263C112.293 173.239 112.293 173.264 113.218 174.189C113.619 174.565 114.019 174.965 113.769 175.59C113.519 176.191 112.993 176.441 112.393 176.516C111.592 176.616 110.917 176.341 110.442 175.665C110.042 175.115 110.192 174.565 110.517 174.039C110.867 173.514 111.417 173.189 111.893 172.814C112.193 172.563 112.793 172.388 112.393 171.788C112.143 171.613 111.843 171.563 111.567 171.563C106.564 171.563 101.586 171.338 96.6084 172.038C93.5566 172.463 90.5298 173.014 87.478 173.464C83.6757 174.014 79.9735 174.99 76.3713 176.316C75.871 176.491 75.2957 176.616 75.2957 177.341C75.6709 177.366 76.0461 177.341 76.4213 177.416C82.1248 178.417 87.9032 178.867 93.6567 179.342C98.4095 179.743 103.162 179.993 107.94 180.093C115.195 180.218 122.449 180.218 129.703 179.693C133.08 179.443 136.432 179.042 139.759 178.367C139.484 177.416 138.609 177.291 137.933 176.991Z" fill="#F9CC03"/>
<path d="M121.323 56.9941C121.648 54.6677 119.497 52.3413 116.92 52.4413C115.344 52.4914 113.769 52.5164 112.218 52.7165C110.717 52.9166 109.191 53.1167 107.765 53.7421C106.739 55.0429 105.614 56.2436 104.213 57.1942C101.611 58.9703 98.7095 59.7958 95.5826 59.6707C92.856 59.5456 90.3295 58.7451 88.0281 57.2192C88.4783 60.7213 88.0531 64.2734 88.5284 67.7756C90.6547 65.0739 93.4063 63.2228 96.6332 62.0721C99.3349 61.1216 102.162 60.8464 105.013 60.6963C106.489 59.6957 108.09 59.1704 109.916 59.4205C113.794 59.9208 117.471 59.2204 120.973 57.4944C121.098 57.3193 121.223 57.1442 121.323 56.9941Z" fill="#F9CC03"/>
<path d="M10.0063 54.3926C7.05449 52.4414 3.77752 53.417 2.30164 56.719C2.35167 58.1198 3.30224 59.1204 3.82755 60.2961C4.10272 60.3712 4.4029 60.4462 4.55299 60.7214C5.75371 62.6726 7.52977 64.0734 9.28082 65.4743C10.7817 67.2003 13.5834 67.5505 15.3345 66.2247C16.6853 64.8739 16.3351 63.2979 15.9098 61.722C15.0593 58.42 12.7829 56.2187 10.0063 54.3926Z" fill="#F9CC03"/>
<path d="M92.0304 96.1427C93.9815 96.1677 95.9327 96.1427 97.8839 96.2178C100.535 96.2928 102.837 97.0683 104.713 99.1695C107.49 102.271 109.816 105.698 112.242 109.05C113.518 110.827 113.493 110.827 114.544 108.975C114.719 108.625 114.744 108.275 114.719 107.875C114.569 103.722 113.994 99.5948 113.643 95.4673C113.618 95.0921 113.568 94.7168 113.268 94.4417C112.993 94.5167 112.718 94.6168 112.443 94.7169C108.89 96.0426 105.263 96.8181 101.436 96.1427C97.8088 95.5173 94.5068 94.0915 91.5301 91.9402C91.5551 93.366 91.355 94.7919 92.0304 96.1427Z" fill="#F9CC03"/>
<path d="M17.2856 57.7194C18.0861 56.1184 19.3618 54.9177 20.6626 53.7921C21.3881 53.1667 21.5382 52.4663 21.263 51.6908C20.4375 49.1893 19.0617 47.1631 16.31 46.4877C15.2594 46.3376 14.4589 47.088 13.5584 47.3632C11.1319 48.1136 10.5566 49.9147 12.0325 51.991C13.3332 53.8171 14.9842 55.343 16.235 57.1941C16.4601 57.4943 16.7853 57.8195 17.2856 57.7194Z" fill="#F9CC03"/>
<path d="M183.811 58.1196C184.311 57.9696 184.461 57.5943 184.711 57.3192C186.412 55.343 188.338 53.717 190.865 52.9165C192.766 52.2911 192.766 52.2911 191.615 50.44C191.515 50.2649 191.365 50.1148 191.24 49.9647C188.163 48.0136 185.011 48.689 183.135 51.7908C182.61 52.6664 182.06 53.5669 181.659 54.5175C182.51 55.6432 183.36 56.7688 183.811 58.1196Z" fill="#F9CC03"/>
<path d="M25.3155 51.1901C27.3668 51.2152 29.418 51.1901 31.5943 51.7405C31.144 50.1895 30.5437 48.9138 29.6932 47.7631C28.5925 46.2872 27.6169 44.6362 25.5657 44.261C24.6902 44.361 24.2399 44.9864 23.7896 45.6368C22.689 47.2878 23.6395 49.8894 25.3155 51.1901Z" fill="#F9CC03"/>
<path d="M78.4725 68.2757C78.5226 68.3258 78.6226 68.2757 78.7227 68.2507C80.4487 68.0756 80.899 67.2501 80.2736 65.4991C79.8984 65.4991 79.5732 65.349 79.248 65.1238C76.4213 63.3228 73.8198 63.9982 72.0437 66.9499C72.469 67.5753 72.9442 68.1006 73.7948 68.0006C75.4207 67.2251 76.9716 67.2501 78.4725 68.2757Z" fill="#F9CC03"/>
<path d="M177.957 51.1903C178.633 51.7156 178.933 51.4655 179.208 50.7901C179.883 49.1141 181.034 47.7883 182.46 46.7126C182.41 46.6626 182.36 46.5625 182.285 46.5375C180.334 46.1373 176.731 47.7132 175.681 49.3892C175.481 49.7144 175.606 49.9145 175.731 50.1897C176.506 50.4399 177.307 50.69 177.957 51.1903Z" fill="#F9CC03"/>
<path d="M122.399 58.2693C122.049 58.8947 122.124 59.2199 122.799 59.42C123.099 59.5201 123.399 59.6201 123.725 59.7202C124 58.3694 124.025 57.0436 123.499 55.7178C123.124 56.5683 122.849 57.4688 122.399 58.2693Z" fill="#F9CC03"/>
<path d="M111.167 174.914C111.142 175.44 111.667 175.59 112.093 175.665C112.468 175.665 112.943 175.79 112.993 175.24C113.043 174.714 112.543 174.539 112.168 174.489C111.792 174.439 111.192 174.389 111.167 174.914Z" fill="#F9CC03"/>
<path d="M96.3834 49.1141C97.5577 49.1141 98.5096 48.1622 98.5096 46.9878C98.5096 45.8135 97.5577 44.8616 96.3834 44.8616C95.209 44.8616 94.2571 45.8135 94.2571 46.9878C94.2571 48.1622 95.209 49.1141 96.3834 49.1141Z" fill="#110D0D"/>
<path d="M122.049 45.912C123.223 45.912 124.175 44.96 124.175 43.7857C124.175 42.6114 123.223 41.6594 122.049 41.6594C120.874 41.6594 119.922 42.6114 119.922 43.7857C119.922 44.96 120.874 45.912 122.049 45.912Z" fill="#110D0D"/>
</svg>
