<svg width="70" height="70" viewBox="0 0 70 70" fill="none" xmlns="http://www.w3.org/2000/svg">
<rect width="70" height="70" fill="#0A192F"/>
<g clip-path="url(#clip0_336_105)">
<path d="M16.768 57.1364L13 11.0862L58 11.1787L54.0157 57.1364L35.6698 62.4485L16.768 57.1364Z" fill="#E9CA32"/>
<path d="M35.6699 58.001V15.4717L54.2012 15.5334L50.8966 53.5841L35.6699 58.001Z" fill="#FFDE25"/>
<path d="M33.6854 20.5215H28.7862V48.828L24.9757 48.1022V44.2917L20.4395 43.5659V52.0942L33.6854 55.5418V20.5215ZM37.3605 20.5215H50.9233L50.0161 25.9469H42.5381V34.85H50.0161L49.1088 52.82L37.3605 55.5418V49.9168L45.2983 47.195L45.7567 39.7554L37.3605 40.9712V20.5215Z" fill="white"/>
</g>
<defs>
<clipPath id="clip0_336_105">
<rect width="45" height="51.5346" fill="white" transform="translate(13 11)"/>
</clipPath>
</defs>
</svg>
