<svg width="70" height="70" viewBox="0 0 70 70" fill="none" xmlns="http://www.w3.org/2000/svg">
<rect width="70" height="70" fill="black"/>
<g clip-path="url(#clip0_336_105)">
<path d="M16.768 57.1363L13 11.0861L58 11.1786L54.0157 57.1363L35.6698 62.4484L16.768 57.1363Z" fill="#E9CA32"/>
<path d="M35.6699 58.0011V15.4718L54.2012 15.5335L50.8966 53.5842L35.6699 58.0011Z" fill="#FFDE25"/>
<path d="M33.6854 20.5216H28.7862V48.8281L24.9757 48.1023V44.2918L20.4395 43.566V52.0943L33.6854 55.5419V20.5216ZM37.3605 20.5216H50.9233L50.0161 25.947H42.5381V34.8501H50.0161L49.1088 52.8201L37.3605 55.5419V49.9168L45.2983 47.195L45.7567 39.7555L37.3605 40.9712V20.5216Z" fill="white"/>
</g>
<defs>
<clipPath id="clip0_336_105">
<rect width="45" height="51.5346" fill="white" transform="translate(13 11)"/>
</clipPath>
</defs>
</svg>
