<svg width="74" height="74" viewBox="0 0 74 74" fill="none" xmlns="http://www.w3.org/2000/svg">
<g clip-path="url(#clip0_365_15)">
<path d="M14.6054 63.3888L10 7.10522L65 7.21833L60.1303 63.3888L37.7076 69.8815L14.6054 63.3888Z" fill="#E9CA32"/>
<path d="M37.7075 63.4459V11.4656L60.3569 11.541L56.3179 58.0475L37.7075 63.4459Z" fill="#FFDE25"/>
<path d="M35.2823 17.6375H29.2944V52.2343L24.6371 51.3472V46.6899L19.0928 45.8028V56.2262L35.2823 60.44V17.6375ZM39.7741 17.6375H56.3508L55.242 24.2685H46.1022V35.1501H55.242L54.1331 57.1133L39.7741 60.44V53.565L49.4758 50.2383L50.036 41.1456L39.7741 42.6315V17.6375Z" fill="white"/>
</g>
<defs>
<clipPath id="clip0_365_15">
<rect width="55" height="62.9867" fill="white" transform="translate(10 6)"/>
</clipPath>
</defs>
</svg>
