<svg width="86" height="84" viewBox="0 0 86 84" fill="none" xmlns="http://www.w3.org/2000/svg">
<g filter="url(#filter0_d_169_38)">
<path d="M43 0C21.4606 0 4 16.8108 4 37.5486C4 58.2864 21.4606 75.0973 43 75.0973C64.5394 75.0973 82 58.2864 82 37.5486C82 16.8108 64.5394 0 43 0ZM33.4531 53.1079H25.5556V28.6465H33.4531V53.1079ZM29.4556 25.6426C26.9612 25.6426 25.3444 23.9373 25.3444 21.833C25.3444 19.6817 27.0019 18.0312 29.5531 18.0312C32.1044 18.0312 33.6644 19.6817 33.7131 21.833C33.7213 23.9451 32.1044 25.6426 29.4556 25.6426ZM62.2887 53.1079H54.3912V39.5512C54.3912 36.3987 53.2456 34.2475 50.3856 34.2475C48.2081 34.2475 46.9081 35.7025 46.3312 37.0949C46.12 37.5878 46.0712 38.2918 46.0712 38.9958V53.1H38.1656V36.4378C38.1656 33.387 38.0681 30.829 37.9544 28.6308H44.8119L45.1775 32.0259H45.3319C46.3719 30.43 48.9231 28.0754 53.1806 28.0754C58.3725 28.0754 62.2725 31.4235 62.2725 38.6282V53.1079H62.2887Z" fill="#54EBD7"/>
<path d="M33.4531 53.6079H33.9531V53.1079V28.6465V28.1465H33.4531H25.5556H25.0556V28.6465V53.1079V53.6079H25.5556H33.4531ZM34.2131 21.831L34.2132 21.831L34.213 21.8216C34.1859 20.6255 33.7362 19.5448 32.9165 18.7634C32.0963 17.9816 30.9393 17.5312 29.5531 17.5312C28.1684 17.5312 26.9893 17.9806 26.1516 18.7591C25.3127 19.5389 24.8444 20.6238 24.8444 21.833C24.8444 24.2311 26.7031 26.1426 29.4556 26.1426C30.8885 26.1426 32.083 25.6818 32.9227 24.8946C33.7629 24.1069 34.2177 23.0195 34.2131 21.831ZM53.8912 53.1079V53.6079H54.3912H61.7725H62.2725H62.2887V53.1079H62.7725V38.6282C62.7725 34.938 61.7727 32.1639 60.0388 30.3086C58.302 28.4504 55.8859 27.5754 53.1806 27.5754C49.424 27.5754 46.92 29.328 45.5591 30.8998L45.309 28.5773L45.2609 28.1308H44.8119H37.9544H37.4278L37.455 28.6567C37.5685 30.849 37.6656 33.398 37.6656 36.4378V53.1V53.6H38.1656H46.0712H46.5712V53.1V38.9958C46.5712 38.2902 46.6242 37.6806 46.7908 37.2919L46.7908 37.2919L46.7932 37.2863C47.3214 36.0114 48.4761 34.7475 50.3856 34.7475C51.6711 34.7475 52.5097 35.2201 53.0496 36.0014C53.6109 36.8137 53.8912 38.0215 53.8912 39.5512V53.1079ZM4.5 37.5486C4.5 17.1047 21.7187 0.5 43 0.5C64.2813 0.5 81.5 17.1047 81.5 37.5486C81.5 57.9926 64.2813 74.5973 43 74.5973C21.7187 74.5973 4.5 57.9926 4.5 37.5486Z" stroke="#54EBD7"/>
</g>
<defs>
<filter id="filter0_d_169_38" x="0" y="0" width="86" height="83.0972" filterUnits="userSpaceOnUse" color-interpolation-filters="sRGB">
<feFlood flood-opacity="0" result="BackgroundImageFix"/>
<feColorMatrix in="SourceAlpha" type="matrix" values="0 0 0 0 0 0 0 0 0 0 0 0 0 0 0 0 0 0 127 0" result="hardAlpha"/>
<feOffset dy="4"/>
<feGaussianBlur stdDeviation="2"/>
<feComposite in2="hardAlpha" operator="out"/>
<feColorMatrix type="matrix" values="0 0 0 0 0 0 0 0 0 0 0 0 0 0 0 0 0 0 0.25 0"/>
<feBlend mode="normal" in2="BackgroundImageFix" result="effect1_dropShadow_169_38"/>
<feBlend mode="normal" in="SourceGraphic" in2="effect1_dropShadow_169_38" result="shape"/>
</filter>
</defs>
</svg>
