<svg width="74" height="74" viewBox="0 0 74 74" fill="none" xmlns="http://www.w3.org/2000/svg">
<path d="M39.7114 5.31579C38.0699 4.39266 35.9301 4.39681 34.2872 5.31579C26.0593 9.85649 17.8313 14.3986 9.60186 18.9372C8.00054 19.7796 6.92048 21.4993 6.9377 23.2842V50.7196C6.92614 52.5393 8.06189 54.2756 9.70451 55.1064C12.0683 56.364 14.3648 57.7492 16.7713 58.923C19.5511 60.2889 23.0289 60.591 25.8426 59.1665C28.1266 57.9858 29.1411 55.3601 29.1383 52.947C29.1567 43.8926 29.1411 34.8379 29.1453 25.7835C29.1996 25.3811 28.8976 24.951 28.4586 24.9607C27.4071 24.9441 26.3542 24.951 25.3027 24.9579C24.9053 24.9204 24.5176 25.2504 24.5476 25.6498C24.5334 34.6458 24.5504 43.6447 24.5391 52.6421C24.562 53.8867 23.7212 55.0829 22.5217 55.5033C19.7515 56.4743 11.8446 51.3404 11.8446 51.3404C11.5544 51.2059 11.3701 50.8912 11.3986 50.5786C11.3986 41.527 11.4 32.4751 11.3986 23.4249C11.3587 23.06 11.5836 22.7314 11.9187 22.5824C20.1195 18.0685 28.3161 13.5432 36.517 9.02653C36.8017 8.83642 37.1989 8.83699 37.4831 9.02791C45.6839 13.5432 53.8819 18.0643 62.0842 22.5785C62.4204 22.7273 62.6357 23.0614 62.6014 23.4249C62.6 32.4751 62.6043 41.527 62.5986 50.5773C62.6229 50.8976 62.4575 51.208 62.1583 51.3487C54.034 55.8381 45.8173 60.1828 37.7665 64.8026C37.4153 65.0042 37.0174 65.2325 36.6239 65.0104C34.5067 63.8394 32.4152 62.6227 30.3052 61.4404C30.0758 61.2971 29.7836 61.2358 29.5444 61.3958C28.5981 61.8944 27.7084 62.2983 26.6221 62.7283C25.0961 63.3323 25.34 63.5794 26.716 64.3811C29.1838 65.7777 31.6556 67.1687 34.1232 68.5666C35.7477 69.5804 37.9305 69.6526 39.6073 68.7156C47.8367 64.1807 56.0633 59.6402 64.2941 55.1053C65.9325 54.2698 67.0739 52.5404 67.0623 50.7193V23.2842C67.0781 21.5355 66.0394 19.8465 64.4864 18.9916C56.2299 14.4288 47.9693 9.87586 39.7114 5.31579Z" fill="#8CC84B"/>
<path d="M52.128 25.9144C48.8982 24.1865 45.0558 24.0945 41.4666 24.3202C38.8737 24.5765 36.1465 25.292 34.2573 27.1507C32.3197 29.0193 31.898 32.0366 32.8183 34.476C33.4779 36.1995 35.138 37.3205 36.8547 37.9134C39.0662 38.6941 41.3889 38.9355 43.7123 39.1769C45.8315 39.3972 47.9513 39.6175 49.9882 40.2472C50.8202 40.523 51.7892 40.9448 52.044 41.8499C52.2793 42.922 52.0214 44.1682 51.1509 44.9131C48.3859 47.1015 40.6951 46.7661 37.9633 45.0438C36.8589 44.31 36.383 43.011 36.1895 41.7733C36.168 41.3875 35.8574 41.0338 35.4386 41.0631C34.3899 41.0506 33.3412 41.0534 32.2925 41.0617C31.9265 41.031 31.5461 41.2914 31.5261 41.6647C31.3107 47.3342 36.5175 49.8058 41.4027 50.3501C44.1938 50.616 47.046 50.6008 49.7945 50.0019C51.8604 49.5314 53.9318 48.6653 55.3541 47.0738C57.1078 45.14 57.4526 42.2606 56.6661 39.8517C56.0648 38.0543 54.3464 36.9013 52.5898 36.3082C50.2011 35.4891 47.3701 35.0488 45.2066 34.8427C42.0618 34.5432 38.3247 34.6656 37.4347 32.5991C37.0798 31.5171 37.3819 30.1735 38.3763 29.508C41.0072 27.7234 46.3616 27.9604 49.0863 29.2935C50.3374 29.9201 51.0624 31.2067 51.3616 32.5057C51.417 32.8873 51.6738 33.2854 52.1155 33.2687C53.1569 33.2895 54.1985 33.2743 55.2399 33.2757C55.5976 33.3008 55.9893 33.0988 56.0592 32.7326C56.015 30.0176 54.6287 27.2386 52.128 25.9144Z" fill="#8CC84B"/>
</svg>
