<svg width="70" height="70" viewBox="0 0 70 70" fill="none" xmlns="http://www.w3.org/2000/svg">
<rect width="70" height="70" fill="black"/>
<g clip-path="url(#clip0_337_195)">
<path d="M13.9165 13.9212H56.0833V54.9378H13.9165V13.9212Z" fill="url(#paint0_radial_337_195)"/>
<path d="M13.9166 13.9213H56.0834V54.9379H13.9166V13.9213ZM12 56.8547H58V12.0047H12V56.8547ZM43.0117 30.4046C41.4975 30.4046 40.9801 31.1713 40.9801 31.8038C40.9801 32.4937 41.325 32.9729 43.3567 34.0271C46.3659 35.4838 47.3051 36.8829 47.3051 38.9338C47.3051 42.0004 44.9667 43.6488 41.8042 43.6488C40.1367 43.6488 38.6992 43.3037 37.875 42.8246C37.7409 42.7672 37.7217 42.6713 37.7217 42.5179V39.7004C37.7217 39.5088 37.8175 39.4512 37.9518 39.5471C39.1593 40.333 40.5392 40.678 41.8042 40.678C43.3184 40.678 43.9509 40.0455 43.9509 39.1829C43.9509 38.4929 43.51 37.8796 41.5742 36.8829C38.8525 35.5796 37.7217 34.2572 37.7217 32.053C37.7217 29.5804 39.6576 27.5296 43.0117 27.5296C44.66 27.5296 45.81 27.7789 46.4425 28.0663C46.5959 28.1621 46.6342 28.3154 46.6342 28.4496V31.0754C46.6342 31.2287 46.5384 31.3246 46.3466 31.267C45.5033 30.7305 44.2575 30.4046 43.0117 30.4046V30.4046ZM26.5283 32.6855C26.9692 32.7238 27.3142 32.7238 28.0809 32.7238C30.3234 32.7238 32.4317 31.938 32.4317 28.8905C32.4317 26.4564 30.9175 25.2296 28.3684 25.2296C27.6017 25.2296 26.8734 25.268 26.5283 25.2871V32.6855ZM23.1167 22.508C23.1167 22.3738 23.3851 22.2779 23.5383 22.2779C24.7651 22.2204 26.5859 22.1821 28.4834 22.1821C33.7925 22.1821 35.8625 25.0954 35.8625 28.8138C35.8625 33.6821 32.3358 35.7713 28.0042 35.7713C27.2759 35.7713 27.0267 35.7329 26.5092 35.7329V43.0929C26.5092 43.2463 26.4517 43.3229 26.2792 43.3229H23.3467C23.1934 43.3229 23.1167 43.2654 23.1167 43.0929V22.508H23.1167Z" fill="#31C5F0"/>
</g>
<defs>
<radialGradient id="paint0_radial_337_195" cx="0" cy="0" r="1" gradientUnits="userSpaceOnUse" gradientTransform="translate(27.8042 23.1131) scale(32.0467 31.0269)">
<stop stop-color="#34364E" stop-opacity="0.98"/>
<stop offset="1" stop-color="#0C0824"/>
</radialGradient>
<clipPath id="clip0_337_195">
<rect width="46" height="44.8592" fill="white" transform="translate(12 12)"/>
</clipPath>
</defs>
</svg>
