<svg width="70" height="70" viewBox="0 0 70 70" fill="none" xmlns="http://www.w3.org/2000/svg">
<rect width="70" height="70" fill="black"/>
<path d="M35 61.25C49.4975 61.25 61.25 49.4975 61.25 35C61.25 20.5025 49.4975 8.75 35 8.75C20.5025 8.75 8.75 20.5025 8.75 35C8.75 49.4975 20.5025 61.25 35 61.25Z" fill="#8892BF"/>
<path d="M32.0737 23.75H35.2237L34.3334 28.4829H37.1639C38.7162 28.5161 39.8726 28.8629 40.6336 29.5237C41.4097 30.1843 41.6381 31.4401 41.3186 33.2902L39.7891 41.5417H36.5934L38.0542 33.6618C38.2062 32.8357 38.1607 32.2494 37.9173 31.9025C37.6739 31.5556 37.1489 31.3822 36.3423 31.3822L33.8084 31.3574L31.9366 41.5417H28.7866L32.0737 23.75Z" fill="white"/>
<path fill-rule="evenodd" clip-rule="evenodd" d="M17.6392 28.4831H23.7568C25.5523 28.4994 26.8535 29.0613 27.6601 30.1679C28.4668 31.2748 28.733 32.7862 28.4591 34.7026C28.3528 35.5784 28.1167 36.4372 27.7514 37.2798C27.4014 38.1223 26.9146 38.882 26.2906 39.5594C25.5296 40.4184 24.7154 40.9634 23.8481 41.195C22.9807 41.4264 22.0827 41.5419 21.1545 41.5419H18.4153L17.5479 46.25H14.375L17.6392 28.4831ZM18.9403 38.7417L20.3054 31.3327H20.7665C20.934 31.3327 21.1089 31.3243 21.2915 31.3079C22.5091 31.2914 23.5208 31.4154 24.3275 31.6796C25.1491 31.9438 25.4231 32.9433 25.1491 34.6779C24.8146 36.743 24.1599 37.9488 23.1861 38.2957C22.2123 38.6263 20.9947 38.783 19.5338 38.7665H19.2143C19.123 38.7665 19.0317 38.7581 18.9403 38.7417Z" fill="white"/>
<path fill-rule="evenodd" clip-rule="evenodd" d="M50.8183 28.4831H44.7007L41.4365 46.25H44.6094L45.477 41.5419H48.2162C49.1443 41.5419 50.0422 41.4264 50.9096 41.195C51.7772 40.9634 52.5911 40.4184 53.3522 39.5594C53.9762 38.882 54.4629 38.1223 54.813 37.2798C55.1782 36.4372 55.4143 35.5784 55.5206 34.7026C55.7945 32.7862 55.5285 31.2748 54.7216 30.1679C53.915 29.0613 52.614 28.4994 50.8183 28.4831ZM47.367 31.3327L46.002 38.7417C46.0933 38.7581 46.1846 38.7665 46.2759 38.7665H46.5954C48.0564 38.783 49.2738 38.6263 50.2477 38.2957C51.2214 37.9488 51.8761 36.743 52.2108 34.6779C52.4848 32.9433 52.2108 31.9438 51.389 31.6796C50.5824 31.4154 49.5707 31.2914 48.353 31.3079C48.1704 31.3243 47.9956 31.3327 47.828 31.3327H47.367Z" fill="white"/>
</svg>
