<svg width="70" height="70" viewBox="0 0 70 70" fill="none" xmlns="http://www.w3.org/2000/svg">
<rect width="70" height="70" fill="#0A192F"/>
<path d="M35 61.25C49.4975 61.25 61.25 49.4975 61.25 35C61.25 20.5025 49.4975 8.75 35 8.75C20.5025 8.75 8.75 20.5025 8.75 35C8.75 49.4975 20.5025 61.25 35 61.25Z" fill="#8892BF"/>
<path d="M32.0734 23.75H35.2234L34.3332 28.4829H37.1637C38.716 28.5161 39.8723 28.8629 40.6334 29.5237C41.4094 30.1843 41.6378 31.4401 41.3183 33.2902L39.7889 41.5417H36.5931L38.0539 33.6618C38.206 32.8357 38.1604 32.2494 37.9171 31.9025C37.6737 31.5556 37.1487 31.3822 36.3421 31.3822L33.8082 31.3574L31.9364 41.5417H28.7864L32.0734 23.75Z" fill="white"/>
<path fill-rule="evenodd" clip-rule="evenodd" d="M17.6392 28.4832H23.7568C25.5523 28.4995 26.8535 29.0614 27.6601 30.168C28.4668 31.2748 28.733 32.7863 28.4591 34.7027C28.3528 35.5785 28.1167 36.4373 27.7514 37.2799C27.4014 38.1223 26.9146 38.8821 26.2906 39.5595C25.5296 40.4185 24.7154 40.9635 23.8481 41.1951C22.9807 41.4265 22.0827 41.542 21.1545 41.542H18.4153L17.5479 46.2501H14.375L17.6392 28.4832ZM18.9403 38.7418L20.3054 31.3328H20.7665C20.934 31.3328 21.1089 31.3243 21.2915 31.308C22.5091 31.2915 23.5208 31.4155 24.3275 31.6797C25.1491 31.9438 25.4231 32.9434 25.1491 34.678C24.8146 36.7431 24.1599 37.9489 23.1861 38.2958C22.2123 38.6263 20.9947 38.7831 19.5338 38.7666H19.2143C19.123 38.7666 19.0317 38.7582 18.9403 38.7418Z" fill="white"/>
<path fill-rule="evenodd" clip-rule="evenodd" d="M50.8185 28.4832H44.701L41.4368 46.2501H44.6096L45.4772 41.542H48.2164C49.1445 41.542 50.0425 41.4265 50.9098 41.1951C51.7774 40.9635 52.5913 40.4185 53.3524 39.5595C53.9764 38.8821 54.4631 38.1223 54.8132 37.2799C55.1785 36.4373 55.4145 35.5785 55.5208 34.7027C55.7948 32.7863 55.5287 31.2748 54.7219 30.168C53.9153 29.0614 52.6142 28.4995 50.8185 28.4832ZM47.3672 31.3328L46.0022 38.7418C46.0935 38.7582 46.1848 38.7666 46.2761 38.7666H46.5956C48.0566 38.7831 49.2741 38.6263 50.248 38.2958C51.2216 37.9489 51.8764 36.7431 52.2111 34.678C52.485 32.9434 52.2111 31.9438 51.3893 31.6797C50.5826 31.4155 49.5709 31.2915 48.3533 31.308C48.1706 31.3243 47.9959 31.3328 47.8283 31.3328H47.3672Z" fill="white"/>
</svg>
