<svg width="70" height="70" viewBox="0 0 70 70" fill="none" xmlns="http://www.w3.org/2000/svg">
<rect width="70" height="70" fill="black"/>
<g clip-path="url(#clip0_337_150)">
<path d="M12.0835 12.0883H57.9169V56.6717H12.0835V12.0883Z" fill="url(#paint0_radial_337_150)"/>
<path d="M12.0833 12.0884H57.9168V56.6718H12.0833V12.0884ZM10 58.7552H60.0001V10.0051H10V58.7552ZM40.0001 30.5884C40.0001 30.3384 40.0001 29.7343 39.8959 28.5675C39.8959 28.4009 39.9167 28.3592 40.0625 28.2967C41.3334 27.7759 44.3126 26.8593 47.6875 26.8593C47.8542 26.8593 47.9375 26.9009 47.9375 27.0676V30.0884C47.9375 30.2551 47.875 30.2967 47.7084 30.2967C46.3958 30.2342 44.5 30.4009 43.7708 30.7133V43.8384C43.7708 44.005 43.7083 44.0884 43.5208 44.0884H40.25C40.0834 44.0884 40 44.0259 40 43.8384V30.5884H40.0001ZM26.6667 32.4843C27.1458 32.5259 27.5209 32.5259 28.3543 32.5259C30.7918 32.5259 33.0835 31.6718 33.0835 28.3593C33.0835 25.7135 31.4584 24.3801 28.6667 24.3801C27.8334 24.3801 27.0418 24.4217 26.6667 24.4426V32.4843ZM22.9792 21.4217C22.9792 21.2759 23.0209 21.1717 23.1875 21.1717C24.5208 21.1092 26.4792 21.0675 28.5417 21.0675C34.3126 21.0675 36.8334 24.2342 36.8334 28.2967C36.8334 33.5884 33.0001 35.8592 28.2918 35.8592C27.5 35.8592 27.2292 35.8176 26.6667 35.8176V43.8176C26.6667 43.9842 26.6042 44.0676 26.4167 44.0676H23.2083C23.0417 44.0676 22.9583 44.0051 22.9583 43.8176V21.4217H22.9792Z" fill="#E579FF"/>
</g>
<defs>
<radialGradient id="paint0_radial_337_150" cx="0" cy="0" r="1" gradientUnits="userSpaceOnUse" gradientTransform="translate(27.1788 22.0795) scale(34.8334 33.7251)">
<stop stop-color="#4B2D4F" stop-opacity="0.98"/>
<stop offset="1" stop-color="#180024"/>
</radialGradient>
<clipPath id="clip0_337_150">
<rect width="50" height="48.76" fill="white" transform="translate(10 10)"/>
</clipPath>
</defs>
</svg>
