<svg width="70" height="70" viewBox="0 0 70 70" fill="none" xmlns="http://www.w3.org/2000/svg">
<rect width="70" height="70" fill="#0A192F"/>
<g clip-path="url(#clip0_337_150)">
<path d="M12.0833 12.0884H57.9167V56.6719H12.0833V12.0884Z" fill="url(#paint0_radial_337_150)"/>
<path d="M12.0833 12.0884H57.9168V56.6719H12.0833V12.0884ZM10 58.7553H60.0001V10.0051H10V58.7553ZM40.0001 30.5885C40.0001 30.3384 40.0001 29.7344 39.8959 28.5676C39.8959 28.4009 39.9167 28.3593 40.0625 28.2968C41.3334 27.7759 44.3126 26.8593 47.6875 26.8593C47.8542 26.8593 47.9375 26.901 47.9375 27.0676V30.0885C47.9375 30.2551 47.875 30.2968 47.7084 30.2968C46.3958 30.2343 44.5 30.4009 43.7708 30.7134V43.8385C43.7708 44.005 43.7083 44.0885 43.5208 44.0885H40.25C40.0834 44.0885 40 44.026 40 43.8385V30.5885H40.0001ZM26.6667 32.4843C27.1458 32.526 27.5209 32.526 28.3543 32.526C30.7918 32.526 33.0835 31.6718 33.0835 28.3594C33.0835 25.7136 31.4584 24.3801 28.6667 24.3801C27.8334 24.3801 27.0418 24.4218 26.6667 24.4426V32.4843ZM22.9792 21.4218C22.9792 21.276 23.0209 21.1717 23.1875 21.1717C24.5208 21.1092 26.4792 21.0676 28.5417 21.0676C34.3126 21.0676 36.8334 24.2342 36.8334 28.2968C36.8334 33.5884 33.0001 35.8593 28.2918 35.8593C27.5 35.8593 27.2292 35.8176 26.6667 35.8176V43.8177C26.6667 43.9843 26.6042 44.0676 26.4167 44.0676H23.2083C23.0417 44.0676 22.9583 44.0051 22.9583 43.8177V21.4218H22.9792Z" fill="#E579FF"/>
</g>
<defs>
<radialGradient id="paint0_radial_337_150" cx="0" cy="0" r="1" gradientUnits="userSpaceOnUse" gradientTransform="translate(27.1785 22.0796) scale(34.8334 33.7251)">
<stop stop-color="#4B2D4F" stop-opacity="0.98"/>
<stop offset="1" stop-color="#180024"/>
</radialGradient>
<clipPath id="clip0_337_150">
<rect width="50" height="48.76" fill="white" transform="translate(10 10)"/>
</clipPath>
</defs>
</svg>
