<svg width="70" height="70" viewBox="0 0 70 70" fill="none" xmlns="http://www.w3.org/2000/svg">
<rect width="70" height="70" fill="black"/>
<g clip-path="url(#clip0_336_103)">
<path d="M58.6326 38.8515C56.535 38.8633 54.7186 39.3671 53.1951 40.1173C52.6326 39.004 52.0701 38.0312 51.9765 37.3048C51.871 36.461 51.7421 35.9453 51.871 34.9376C51.9998 33.9296 52.5858 32.5 52.5858 32.3828C52.5739 32.2773 52.4567 31.7617 51.2498 31.75C50.0429 31.7382 48.9998 31.9843 48.8826 32.3007C48.7654 32.6171 48.5311 33.3437 48.3787 34.0937C48.1678 35.1953 45.9647 39.0976 44.7108 41.1484C44.3006 40.3515 43.949 39.6484 43.8786 39.0858C43.7733 38.2421 43.6442 37.7264 43.7733 36.7187C43.9022 35.7108 44.4881 34.2812 44.4881 34.164C44.4764 34.0586 44.3592 33.5429 43.1523 33.5312C41.9451 33.5195 40.9023 33.7656 40.7851 34.082C40.6679 34.3984 40.539 35.1484 40.2812 35.875C40.035 36.6015 37.1053 43.1171 36.3436 44.8163C35.9569 45.6835 35.6171 46.3749 35.3709 46.8437C35.1248 47.3124 35.3592 46.8788 35.3358 46.9257C35.1248 47.3242 35.0077 47.5468 35.0077 47.5468V47.5586C34.8436 47.8516 34.6678 48.1327 34.5857 48.1327C34.5271 48.1327 34.4099 47.3476 34.6091 46.2696C35.0427 44.0078 36.0974 40.4805 36.0858 40.3516C36.0858 40.293 36.2849 39.6718 35.406 39.3555C34.5505 39.0391 34.2459 39.5665 34.1755 39.5665C34.1052 39.5665 34.0466 39.754 34.0466 39.754C34.0466 39.754 34.9958 35.7814 32.2302 35.7814C30.4958 35.7814 28.1052 37.6682 26.9216 39.3908C26.1716 39.801 24.5779 40.668 22.8904 41.5939C22.2458 41.9455 21.5779 42.3205 20.9451 42.6603L20.8163 42.5195C17.4647 38.9453 11.2655 36.414 11.5233 31.6093C11.6171 29.8632 12.2264 25.2578 23.4297 19.6797C32.6054 15.1094 39.9531 16.3633 41.2303 19.1523C43.0467 23.1367 37.3045 30.5429 27.7656 31.6093C24.1328 32.0195 22.2225 30.6132 21.7422 30.0859C21.2383 29.5351 21.1679 29.5117 20.9804 29.6172C20.6758 29.7812 20.8633 30.2734 20.9804 30.5664C21.2617 31.3047 22.4336 32.6171 24.4258 33.2734C26.1717 33.8476 30.4375 34.164 35.5937 32.1718C41.371 29.9336 45.8828 23.7226 44.5585 18.5312C43.2109 13.2461 34.4453 11.5117 26.1601 14.4531C21.2264 16.2109 15.8827 18.9531 12.0389 22.5508C7.46863 26.8164 6.74207 30.5429 7.04676 32.0898C8.11328 37.6093 15.7186 41.207 18.7655 43.8671C18.6131 43.949 18.4725 44.0311 18.3436 44.1015C16.8202 44.8514 11.0194 47.8867 9.56629 51.0975C7.92566 54.7303 9.8241 57.3437 11.0897 57.6952C15.0038 58.7851 19.0116 56.828 21.1795 53.6054C23.3357 50.3827 23.078 46.1992 22.0819 44.289L22.0466 44.2187L23.2419 43.5156C24.0155 43.0585 24.7772 42.6367 25.4451 42.2733C25.0702 43.2928 24.8005 44.4998 24.66 46.2576C24.496 48.3202 25.3397 50.992 26.453 52.0467C26.9452 52.5036 27.5311 52.5154 27.8944 52.5154C29.1834 52.5154 29.7694 51.4489 30.4139 50.1717C31.2108 48.6131 31.9139 46.8084 31.9139 46.8084C31.9139 46.8084 31.035 51.6951 33.4373 51.6951C34.3162 51.6951 35.1952 50.5584 35.5936 49.9725V49.9842C35.5936 49.9842 35.617 49.949 35.6639 49.867C35.7131 49.7943 35.76 49.7201 35.8045 49.6445V49.621C36.1561 49.0116 36.9412 47.6171 38.1131 45.3085C39.6247 42.332 41.078 38.6054 41.078 38.6054C41.078 38.6054 41.2186 39.5195 41.6522 41.0195C41.9099 41.9102 42.4724 42.8828 42.906 43.832C42.5544 44.3242 42.3435 44.6055 42.3435 44.6055L42.3552 44.6172C42.0741 44.9922 41.7575 45.3908 41.4295 45.7891C40.2342 47.2188 38.8045 48.8478 38.617 49.3166C38.3944 49.8672 38.4412 50.2774 38.8748 50.6056C39.1912 50.84 39.7537 50.8868 40.3514 50.84C41.4295 50.7696 42.1795 50.5002 42.5545 50.336C43.1405 50.125 43.8084 49.8086 44.453 49.3399C45.6248 48.4728 46.3397 47.2424 46.2694 45.6017C46.2342 44.6994 45.9412 43.8088 45.578 42.965C45.6834 42.8127 45.789 42.6602 45.8944 42.4963C47.7459 39.7891 49.1756 36.8127 49.1756 36.8127C49.1756 36.8127 49.3162 37.7267 49.7498 39.2267C49.9724 39.9885 50.4178 40.8206 50.8162 41.6409C49.0819 43.0589 47.992 44.6995 47.617 45.7776C46.9256 47.7698 47.4647 48.6722 48.4842 48.8831C48.9411 48.9768 49.5975 48.7659 50.0895 48.555C50.6989 48.3558 51.4372 48.0158 52.117 47.512C53.2889 46.6448 54.4139 45.4378 54.3553 43.8089C54.3201 43.0589 54.1209 42.3206 53.8514 41.6175C55.3279 41.0081 57.238 40.6565 59.6639 40.9495C64.8787 41.5589 65.91 44.8167 65.7109 46.1761C65.5116 47.5356 64.4218 48.2854 64.0584 48.5198C63.6951 48.7425 63.5779 48.8246 63.6131 48.9886C63.66 49.2348 63.824 49.2229 64.1404 49.1762C64.574 49.1058 66.8826 48.0629 66.9764 45.5552C67.117 42.3321 64.0584 38.8165 58.6326 38.8515V38.8515ZM18.4139 52.4101C16.6913 54.2968 14.2655 55.0116 13.2342 54.4023C12.121 53.7577 12.5544 50.9804 14.6757 48.9765C15.9647 47.7577 17.6405 46.6327 18.7421 45.9413C18.9881 45.789 19.3631 45.5665 19.8085 45.2968C19.8788 45.2501 19.9256 45.2265 19.9256 45.2265C20.0077 45.1796 20.1014 45.121 20.1952 45.0624C20.9803 47.9218 20.2303 50.4296 18.4139 52.4101V52.4101ZM31.0116 43.8437C30.4139 45.3085 29.1483 49.0702 28.3866 48.8593C27.7302 48.6835 27.3319 45.8359 28.2575 43.0234C28.7263 41.6053 29.7224 39.9179 30.3083 39.2615C31.2577 38.2069 32.2888 37.8553 32.5467 38.2889C32.8514 38.8515 31.3866 42.9296 31.0116 43.8437ZM41.4061 48.8124C41.1483 48.9415 40.9139 49.0351 40.8084 48.9649C40.7264 48.918 40.9138 48.7422 40.9138 48.7422C40.9138 48.7422 42.2146 47.3477 42.7302 46.7032C43.0231 46.3283 43.3747 45.8947 43.7497 45.4024V45.543C43.7498 47.2304 42.1326 48.3554 41.4061 48.8124ZM49.4216 46.9843C49.2341 46.8437 49.2576 46.4101 49.8903 45.0507C50.1365 44.5117 50.6989 43.6093 51.6716 42.7538C51.7888 43.1054 51.8592 43.4451 51.8474 43.7617C51.8358 45.871 50.3358 46.6562 49.4216 46.9843Z" fill="#CF649A"/>
</g>
<defs>
<clipPath id="clip0_336_103">
<rect width="60" height="45" fill="white" transform="translate(7 13)"/>
</clipPath>
</defs>
</svg>
