<svg width="70" height="70" viewBox="0 0 70 70" fill="none" xmlns="http://www.w3.org/2000/svg">
<rect width="70" height="70" fill="#0A192F"/>
<g clip-path="url(#clip0_336_103)">
<path d="M58.6326 38.8514C56.535 38.8632 54.7186 39.367 53.1951 40.1171C52.6326 39.0038 52.0701 38.0311 51.9765 37.3046C51.871 36.4609 51.7421 35.9451 51.871 34.9375C51.9998 33.9295 52.5858 32.4998 52.5858 32.3827C52.5739 32.2772 52.4567 31.7616 51.2498 31.7498C50.0429 31.7381 48.9998 31.9842 48.8826 32.3006C48.7654 32.617 48.5311 33.3436 48.3787 34.0936C48.1678 35.1951 45.9647 39.0975 44.7108 41.1483C44.3006 40.3514 43.949 39.6483 43.8786 39.0856C43.7733 38.242 43.6442 37.7263 43.7733 36.7186C43.9022 35.7107 44.4881 34.2811 44.4881 34.1639C44.4764 34.0584 44.3592 33.5428 43.1523 33.5311C41.9451 33.5194 40.9023 33.7655 40.7851 34.0819C40.6679 34.3983 40.539 35.1483 40.2812 35.8748C40.035 36.6014 37.1053 43.117 36.3436 44.8162C35.9569 45.6834 35.6171 46.3748 35.3709 46.8436C35.1248 47.3123 35.3592 46.8787 35.3358 46.9256C35.1248 47.324 35.0077 47.5467 35.0077 47.5467V47.5585C34.8436 47.8515 34.6678 48.1326 34.5857 48.1326C34.5271 48.1326 34.4099 47.3475 34.6091 46.2695C35.0427 44.0076 36.0974 40.4804 36.0858 40.3515C36.0858 40.2929 36.2849 39.6717 35.406 39.3554C34.5505 39.039 34.2459 39.5663 34.1755 39.5663C34.1052 39.5663 34.0466 39.7538 34.0466 39.7538C34.0466 39.7538 34.9958 35.7813 32.2302 35.7813C30.4958 35.7813 28.1052 37.668 26.9216 39.3907C26.1716 39.8008 24.5779 40.6679 22.8904 41.5938C22.2458 41.9454 21.5779 42.3204 20.9451 42.6602L20.8163 42.5194C17.4647 38.9451 11.2655 36.4139 11.5233 31.6092C11.6171 29.8631 12.2264 25.2577 23.4297 19.6796C32.6054 15.1093 39.9531 16.3632 41.2303 19.1522C43.0467 23.1366 37.3045 30.5428 27.7656 31.6092C24.1328 32.0194 22.2225 30.6131 21.7422 30.0858C21.2383 29.535 21.1679 29.5116 20.9804 29.617C20.6758 29.7811 20.8633 30.2733 20.9804 30.5662C21.2617 31.3045 22.4336 32.617 24.4258 33.2733C26.1717 33.8475 30.4375 34.1639 35.5937 32.1717C41.371 29.9334 45.8828 23.7225 44.5585 18.5311C43.2109 13.246 34.4453 11.5116 26.1601 14.453C21.2264 16.2108 15.8827 18.953 12.0389 22.5506C7.46863 26.8163 6.74207 30.5428 7.04676 32.0897C8.11328 37.6092 15.7186 41.2069 18.7655 43.867C18.6131 43.9489 18.4725 44.031 18.3436 44.1014C16.8202 44.8513 11.0194 47.8865 9.56629 51.0973C7.92566 54.7301 9.8241 57.3435 11.0897 57.6951C15.0038 58.7849 19.0116 56.8279 21.1795 53.6053C23.3357 50.3826 23.078 46.199 22.0819 44.2889L22.0466 44.2186L23.2419 43.5154C24.0155 43.0584 24.7772 42.6365 25.4451 42.2731C25.0702 43.2927 24.8005 44.4997 24.66 46.2575C24.496 48.3201 25.3397 50.9919 26.453 52.0466C26.9452 52.5035 27.5311 52.5153 27.8944 52.5153C29.1834 52.5153 29.7694 51.4488 30.4139 50.1716C31.2108 48.613 31.9139 46.8083 31.9139 46.8083C31.9139 46.8083 31.035 51.695 33.4373 51.695C34.3162 51.695 35.1952 50.5583 35.5936 49.9723V49.9841C35.5936 49.9841 35.617 49.9489 35.6639 49.8669C35.7131 49.7942 35.76 49.72 35.8045 49.6443V49.6209C36.1561 49.0115 36.9412 47.617 38.1131 45.3084C39.6247 42.3319 41.078 38.6053 41.078 38.6053C41.078 38.6053 41.2186 39.5194 41.6522 41.0194C41.9099 41.9101 42.4724 42.8826 42.906 43.8319C42.5544 44.324 42.3435 44.6054 42.3435 44.6054L42.3552 44.6171C42.0741 44.9921 41.7575 45.3907 41.4295 45.789C40.2342 47.2187 38.8045 48.8477 38.617 49.3164C38.3944 49.8671 38.4412 50.2773 38.8748 50.6055C39.1912 50.8399 39.7537 50.8866 40.3514 50.8399C41.4295 50.7695 42.1795 50.5 42.5545 50.3359C43.1405 50.1249 43.8084 49.8085 44.453 49.3398C45.6248 48.4727 46.3397 47.2422 46.2694 45.6016C46.2342 44.6993 45.9412 43.8086 45.578 42.9649C45.6834 42.8126 45.789 42.6601 45.8944 42.4961C47.7459 39.789 49.1756 36.8126 49.1756 36.8126C49.1756 36.8126 49.3162 37.7266 49.7498 39.2266C49.9724 39.9883 50.4178 40.8205 50.8162 41.6408C49.0819 43.0588 47.992 44.6994 47.617 45.7775C46.9256 47.7697 47.4647 48.672 48.4842 48.883C48.9411 48.9767 49.5975 48.7658 50.0895 48.5548C50.6989 48.3556 51.4372 48.0157 52.117 47.5119C53.2889 46.6447 54.4139 45.4377 54.3553 43.8088C54.3201 43.0588 54.1209 42.3205 53.8514 41.6174C55.3279 41.008 57.238 40.6564 59.6639 40.9494C64.8787 41.5588 65.91 44.8166 65.7109 46.1759C65.5116 47.5354 64.4218 48.2853 64.0584 48.5197C63.6951 48.7423 63.5779 48.8245 63.6131 48.9884C63.66 49.2346 63.824 49.2228 64.1404 49.1761C64.574 49.1056 66.8826 48.0628 66.9764 45.5551C67.117 42.332 64.0584 38.8164 58.6326 38.8514ZM18.4139 52.41C16.6913 54.2967 14.2655 55.0115 13.2342 54.4021C12.121 53.7576 12.5544 50.9803 14.6757 48.9764C15.9647 47.7576 17.6405 46.6326 18.7421 45.9412C18.9881 45.7889 19.3631 45.5663 19.8085 45.2967C19.8788 45.2499 19.9256 45.2264 19.9256 45.2264C20.0077 45.1795 20.1014 45.1209 20.1952 45.0623C20.9803 47.9217 20.2303 50.4295 18.4139 52.41ZM31.0116 43.8436C30.4139 45.3084 29.1483 49.0701 28.3866 48.8592C27.7302 48.6834 27.3319 45.8358 28.2575 43.0233C28.7263 41.6052 29.7224 39.9178 30.3083 39.2614C31.2577 38.2067 32.2888 37.8552 32.5467 38.2888C32.8514 38.8514 31.3866 42.9295 31.0116 43.8436ZM41.4061 48.8123C41.1483 48.9413 40.9139 49.035 40.8084 48.9648C40.7264 48.9179 40.9138 48.7421 40.9138 48.7421C40.9138 48.7421 42.2146 47.3476 42.7302 46.7031C43.0231 46.3282 43.3747 45.8946 43.7497 45.4023V45.5429C43.7498 47.2303 42.1326 48.3553 41.4061 48.8123ZM49.4216 46.9842C49.2341 46.8436 49.2576 46.41 49.8903 45.0506C50.1365 44.5115 50.6989 43.6092 51.6716 42.7537C51.7888 43.1053 51.8592 43.445 51.8474 43.7615C51.8358 45.8709 50.3358 46.6561 49.4216 46.9842Z" fill="#CF649A"/>
</g>
<defs>
<clipPath id="clip0_336_103">
<rect width="60" height="45" fill="white" transform="translate(7 13)"/>
</clipPath>
</defs>
</svg>
