<svg width="70" height="70" viewBox="0 0 70 70" fill="none" xmlns="http://www.w3.org/2000/svg">
<rect width="70" height="70" fill="#0A192F"/>
<g clip-path="url(#clip0_336_100)">
<path d="M5.11328 47.209H7.08389V39.4273L10.1347 46.2111C10.4946 47.0322 10.9873 47.3227 11.9536 47.3227C12.92 47.3227 13.3937 47.0322 13.7538 46.2111L16.8045 39.4273V47.209H18.7752V39.44C18.7752 38.6821 18.4719 38.3157 17.8467 38.1263C16.3498 37.6589 15.3455 38.0631 14.8906 39.0737L11.8968 45.7689L8.99771 39.0737C8.56192 38.0631 7.53869 37.6589 6.04179 38.1263C5.41644 38.3157 5.11328 38.6821 5.11328 39.44V47.209Z" fill="#00618A"/>
<path d="M20.4138 40.8749H22.3838V45.162C22.3654 45.395 22.4586 45.9416 23.5381 45.9586C24.0889 45.9672 27.7888 45.9586 27.8233 45.9586V40.854H29.7979C29.807 40.854 29.7959 47.8152 29.7961 47.8448C29.807 49.5617 27.6658 49.9346 26.679 49.9634H20.4566V48.6377C20.4675 48.6377 26.6744 48.639 26.69 48.6374C27.9583 48.5035 27.8085 47.8731 27.8084 47.6609V47.144H23.6199C21.6712 47.1261 20.4302 46.2756 20.4149 45.2972C20.4135 45.2065 20.4569 40.9177 20.4138 40.8749Z" fill="#00618A"/>
<path d="M31.3164 47.2088H36.9819C37.6451 47.2088 38.2894 47.0699 38.8011 46.8298C39.6536 46.4383 40.0706 45.9078 40.0706 45.2129V43.7729C40.0706 43.2043 39.5969 42.6737 38.6683 42.3201C38.1756 42.1305 37.5693 42.0295 36.9819 42.0295H34.5943C33.7987 42.0295 33.4196 41.7895 33.3249 41.259C33.3059 41.1958 33.3059 41.1451 33.3059 41.0821V40.1853C33.3059 40.1347 33.3059 40.084 33.3249 40.0209C33.4196 39.6167 33.6282 39.5029 34.3291 39.4398C34.3861 39.4398 34.4617 39.4271 34.5187 39.4271H40.1464V38.1135H34.6133C33.8175 38.1135 33.4006 38.164 33.0217 38.2776C31.8469 38.644 31.3353 39.2251 31.3353 40.2358V41.3853C31.3353 42.2696 32.3396 43.0275 34.0259 43.2043C34.2156 43.2169 34.4049 43.2295 34.5943 43.2295H36.6408C36.7167 43.2295 36.7925 43.2295 36.8493 43.2422C37.4746 43.2929 37.7398 43.4064 37.9294 43.6338C38.043 43.7474 38.0809 43.8612 38.0809 43.9875V45.1371C38.0809 45.2761 37.9862 45.453 37.7969 45.6045C37.6262 45.7561 37.342 45.8572 36.963 45.8825C36.8872 45.8825 36.8304 45.8951 36.7546 45.8951H31.3164V47.2088Z" fill="#E48E00"/>
<path d="M52.364 44.9224C52.364 46.274 53.3682 47.032 55.3958 47.1837C55.5851 47.1962 55.7748 47.2088 55.9642 47.2088H61.0993V45.8951H55.9263C54.7705 45.8951 54.3347 45.6045 54.3347 44.9098V38.1135H52.364V44.9224Z" fill="#E48E00"/>
<path d="M41.3284 44.9914V40.3077C41.3284 39.1178 42.1639 38.3962 43.8157 38.1683C43.9866 38.1431 44.1766 38.1304 44.3474 38.1304H48.088C48.2778 38.1304 48.4489 38.1431 48.6387 38.1683C50.2906 38.3962 51.126 39.1178 51.126 40.3077V44.9914C51.126 45.9568 50.7713 46.4734 49.9535 46.8101L51.8947 48.5622H49.6065L48.0361 47.1446L46.4551 47.2448H44.3474C43.9866 47.2448 43.607 47.1941 43.1891 47.0802C41.936 46.7385 41.3284 46.0801 41.3284 44.9914ZM43.4554 44.8775C43.4554 44.9409 43.4743 45.0041 43.4933 45.0801C43.6071 45.6244 44.1198 45.9282 44.8983 45.9282H46.6886L45.0441 44.4436H47.3322L48.7665 45.7384C49.0308 45.5975 49.2048 45.3821 49.2656 45.1054C49.2844 45.0422 49.2844 44.9788 49.2844 44.9156V40.4217C49.2844 40.3711 49.2844 40.3077 49.2656 40.2443C49.1516 39.7381 48.6389 39.447 47.8794 39.447H44.8983C44.025 39.447 43.4554 39.8268 43.4554 40.4217V44.8775Z" fill="#E48E00"/>
<path d="M62.8332 35.9342C61.6218 35.9013 60.6965 36.014 59.9055 36.3476C59.6807 36.4424 59.3222 36.4449 59.2855 36.7266C59.409 36.8561 59.4282 37.0495 59.5264 37.2088C59.7153 37.5144 60.0342 37.924 60.3187 38.1388C60.6296 38.3735 60.95 38.6245 61.2833 38.8277C61.8761 39.1892 62.5379 39.3956 63.1088 39.7578C63.4452 39.9712 63.7794 40.2401 64.1076 40.481C64.2698 40.6001 64.3789 40.7853 64.5898 40.8599C64.5898 40.8485 64.5898 40.837 64.5898 40.8255C64.479 40.6845 64.4504 40.4905 64.3487 40.3432C64.1995 40.194 64.0502 40.0447 63.9009 39.8954C63.4631 39.3143 62.9073 38.8039 62.3165 38.3799C61.8454 38.0417 60.7909 37.5849 60.5943 37.0366C60.5828 37.0251 60.5714 37.0136 60.5598 37.0021C60.8939 36.9645 61.285 36.8435 61.5933 36.761C62.1112 36.6221 62.574 36.658 63.1088 36.5199C63.3499 36.451 63.5909 36.382 63.8322 36.3132C63.8322 36.2672 63.8322 36.2214 63.8322 36.1754C63.5618 35.898 63.369 35.5309 63.0743 35.2799C62.303 34.6231 61.4612 33.9669 60.5943 33.4198C60.1135 33.1163 59.5194 32.9191 59.0099 32.6619C58.8385 32.5755 58.5374 32.5305 58.4242 32.3864C58.1566 32.0451 58.0108 31.6126 57.8044 31.2152C57.372 30.3826 56.9474 29.4733 56.5643 28.5974C56.303 28.0001 56.1324 27.411 55.8066 26.8751C54.2426 24.3037 52.5591 22.7516 49.9511 21.2261C49.3963 20.9017 48.7281 20.7735 48.0221 20.6062C47.6434 20.5832 47.2643 20.5602 46.8855 20.5372C46.6542 20.4406 46.4136 20.1576 46.1966 20.0205C45.3327 19.4747 43.1167 18.2876 42.4768 19.8483C42.0727 20.8335 43.0806 21.7948 43.4411 22.294C43.6941 22.6442 44.018 23.0368 44.1988 23.4306C44.3177 23.6895 44.3383 23.949 44.44 24.2229C44.6905 24.8976 44.9082 25.6316 45.2322 26.2551C45.3959 26.5706 45.5764 26.903 45.7834 27.1851C45.9103 27.3582 46.1277 27.4345 46.1621 27.7018C45.9494 27.9995 45.9373 28.4615 45.8177 28.8385C45.2794 30.5359 45.4824 32.6458 46.2655 33.902C46.5058 34.2876 47.0718 35.1147 47.8499 34.7976C48.5306 34.5203 48.3786 33.6611 48.5733 32.9031C48.6173 32.7312 48.5903 32.6048 48.6766 32.4898C48.6766 32.5011 48.6766 32.5127 48.6766 32.5242C48.8833 32.9375 49.09 33.3508 49.2967 33.7641C49.7555 34.5031 50.5699 35.2754 51.2599 35.7965C51.6178 36.0668 51.8995 36.534 52.3622 36.6921C52.3622 36.6806 52.3622 36.6692 52.3622 36.6576C52.3505 36.6576 52.3392 36.6576 52.3277 36.6576C52.238 36.5178 52.0978 36.4599 51.9833 36.3476C51.7137 36.0833 51.414 35.7548 51.191 35.452C50.5634 34.5999 50.0087 33.6672 49.5034 32.6964C49.262 32.2329 49.0522 31.7214 48.8487 31.2497C48.7703 31.0678 48.7712 30.7928 48.6078 30.6985C48.385 31.0442 48.0568 31.3237 47.8844 31.7319C47.6088 32.3844 47.5732 33.1801 47.4712 34.0053C47.4107 34.0269 47.4376 34.012 47.4021 34.0397C46.9224 33.924 46.7538 33.4301 46.5756 33.0065C46.1246 31.935 46.0409 30.2097 46.4377 28.9764C46.5403 28.6573 47.0044 27.6523 46.8166 27.3575C46.7269 27.0633 46.4311 26.8932 46.2655 26.6684C46.0607 26.3906 45.8561 26.0248 45.7143 25.704C45.3453 24.8685 45.1729 23.9307 44.7844 23.0863C44.5987 22.6826 44.2846 22.2741 44.0266 21.9152C43.7411 21.5176 43.4213 21.2248 43.2 20.7439C43.1213 20.573 43.0143 20.2995 43.1311 20.1239C43.1682 20.0054 43.2206 19.9559 43.3378 19.9173C43.5376 19.7632 44.094 19.9685 44.3021 20.055C44.8545 20.2844 45.3155 20.5029 45.7834 20.8128C46.008 20.9618 46.2351 21.2498 46.5066 21.3295C46.6099 21.3295 46.7133 21.3295 46.8166 21.3295C47.3015 21.441 47.8447 21.3641 48.2977 21.5017C49.0984 21.7451 49.8159 22.1236 50.4677 22.5351C52.453 23.7887 54.0763 25.5732 55.1866 27.7018C55.3653 28.0446 55.4426 28.3717 55.5999 28.7353C55.9174 29.4684 56.3173 30.2227 56.6331 30.9396C56.9483 31.6549 57.2555 32.3768 57.701 32.972C57.9353 33.2849 58.8399 33.4527 59.251 33.6264C59.5392 33.7483 60.0113 33.8752 60.2843 34.0397C60.8058 34.3542 61.3109 34.7287 61.8 35.0732C62.0444 35.2453 62.7957 35.623 62.8332 35.9342Z" fill="#00618A"/>
<path fill-rule="evenodd" clip-rule="evenodd" d="M47.4365 22.8107C47.1839 22.8061 47.0053 22.8383 46.8164 22.8795C46.8164 22.8911 46.8164 22.9026 46.8164 22.914C46.8279 22.914 46.8394 22.914 46.8509 22.914C46.9714 23.1616 47.1841 23.3209 47.3331 23.5341C47.4479 23.7752 47.5627 24.0164 47.6776 24.2573C47.6889 24.2459 47.7006 24.2344 47.712 24.223C47.9253 24.0727 48.023 23.8322 48.0219 23.4652C47.9365 23.3753 47.9239 23.2624 47.8498 23.1551C47.7512 23.0122 47.5607 22.9309 47.4365 22.8107Z" fill="#00618A"/>
<path fill-rule="evenodd" clip-rule="evenodd" d="M62.0244 45.8576C62.0244 46.7253 62.7099 47.3099 63.4767 47.3099C64.2435 47.3099 64.929 46.7253 64.929 45.8576C64.929 44.9902 64.2435 44.4055 63.4767 44.4055C62.7099 44.4055 62.0244 44.9902 62.0244 45.8576ZM64.6036 45.8576C64.6036 46.516 64.1003 47.0079 63.4767 47.0079C62.8455 47.0079 62.3497 46.516 62.3497 45.8576C62.3497 45.1993 62.8455 44.7074 63.4767 44.7074C64.1003 44.7074 64.6036 45.1993 64.6036 45.8576ZM63.868 46.6864H64.1932L63.717 45.9585C63.9725 45.9313 64.166 45.8073 64.166 45.5053C64.166 45.1683 63.9532 45.029 63.5427 45.029H62.8959V46.6864H63.1747V45.97H63.4342L63.868 46.6864ZM63.1747 45.7376V45.2613H63.496C63.6627 45.2613 63.864 45.2923 63.864 45.486C63.864 45.7182 63.682 45.7376 63.4729 45.7376H63.1747Z" fill="#E48E00"/>
</g>
<defs>
<clipPath id="clip0_336_100">
<rect width="60" height="30.9974" fill="white" transform="translate(5 19)"/>
</clipPath>
</defs>
</svg>
