<svg width="70" height="70" viewBox="0 0 70 70" fill="none" xmlns="http://www.w3.org/2000/svg">
<rect width="70" height="70" fill="black"/>
<g clip-path="url(#clip0_336_100)">
<path d="M5.11328 47.2089H7.08389V39.4272L10.1347 46.211C10.4946 47.0321 10.9873 47.3226 11.9536 47.3226C12.92 47.3226 13.3937 47.0321 13.7538 46.211L16.8045 39.4272V47.2089H18.7752V39.4399C18.7752 38.682 18.4719 38.3155 17.8467 38.1262C16.3498 37.6588 15.3455 38.063 14.8906 39.0736L11.8968 45.7687L8.99771 39.0736C8.56192 38.063 7.53869 37.6588 6.04179 38.1262C5.41644 38.3155 5.11328 38.682 5.11328 39.4399V47.2089Z" fill="#00618A"/>
<path d="M20.4136 40.875H22.3836V45.1622C22.3652 45.3951 22.4583 45.9417 23.5379 45.9587C24.0886 45.9673 27.7885 45.9587 27.823 45.9587V40.8541H29.7977C29.8067 40.8541 29.7957 47.8153 29.7958 47.845C29.8067 49.5618 27.6656 49.9347 26.6787 49.9635H20.4564V48.6379C20.4673 48.6379 26.6741 48.6391 26.6898 48.6375C27.9581 48.5036 27.8083 47.8732 27.8082 47.661V47.1441H23.6197C21.671 47.1262 20.43 46.2758 20.4146 45.2973C20.4133 45.2067 20.4567 40.9178 20.4136 40.875Z" fill="#00618A"/>
<path d="M31.3164 47.2089H36.9819C37.6451 47.2089 38.2894 47.07 38.8011 46.8299C39.6536 46.4384 40.0706 45.9079 40.0706 45.2129V43.7729C40.0706 43.2044 39.5969 42.6738 38.6683 42.3202C38.1756 42.1305 37.5693 42.0296 36.9819 42.0296H34.5943C33.7987 42.0296 33.4196 41.7896 33.3249 41.2591C33.3059 41.1959 33.3059 41.1452 33.3059 41.0821V40.1854C33.3059 40.1347 33.3059 40.0841 33.3249 40.021C33.4196 39.6168 33.6282 39.503 34.3291 39.4399C34.3861 39.4399 34.4617 39.4272 34.5187 39.4272H40.1464V38.1136H34.6133C33.8175 38.1136 33.4006 38.1641 33.0217 38.2776C31.8469 38.6441 31.3353 39.2252 31.3353 40.2359V41.3854C31.3353 42.2697 32.3396 43.0276 34.0259 43.2044C34.2156 43.217 34.4049 43.2296 34.5943 43.2296H36.6408C36.7167 43.2296 36.7925 43.2296 36.8493 43.2423C37.4746 43.2929 37.7398 43.4065 37.9294 43.6339C38.043 43.7475 38.0809 43.8613 38.0809 43.9876V45.1371C38.0809 45.2762 37.9862 45.4531 37.7969 45.6045C37.6262 45.7562 37.342 45.8573 36.963 45.8826C36.8872 45.8826 36.8304 45.8952 36.7546 45.8952H31.3164V47.2089Z" fill="#E48E00"/>
<path d="M52.3643 44.9225C52.3643 46.2741 53.3685 47.0321 55.396 47.1837C55.5854 47.1963 55.775 47.2089 55.9644 47.2089H61.0995V45.8952H55.9265C54.7707 45.8952 54.3349 45.6045 54.3349 44.9099V38.1136H52.3643V44.9225Z" fill="#E48E00"/>
<path d="M41.3286 44.9914V40.3077C41.3286 39.1178 42.1642 38.3961 43.8159 38.1682C43.9869 38.1431 44.1769 38.1303 44.3476 38.1303H48.0882C48.278 38.1303 48.4491 38.1431 48.639 38.1682C50.2909 38.3961 51.1263 39.1178 51.1263 40.3077V44.9914C51.1263 45.9567 50.7715 46.4734 49.9537 46.8101L51.8949 48.5622H49.6068L48.0363 47.1446L46.4553 47.2448H44.3476C43.9869 47.2448 43.6072 47.194 43.1894 47.0802C41.9363 46.7384 41.3286 46.0801 41.3286 44.9914ZM43.4556 44.8775C43.4556 44.9409 43.4745 45.0041 43.4935 45.0801C43.6074 45.6244 44.1201 45.9282 44.8985 45.9282H46.6889L45.0443 44.4435H47.3325L48.7668 45.7384C49.031 45.5975 49.205 45.3821 49.2658 45.1054C49.2847 45.0422 49.2847 44.9788 49.2847 44.9156V40.4217C49.2847 40.3711 49.2847 40.3077 49.2658 40.2443C49.1518 39.7381 48.6391 39.447 47.8797 39.447H44.8985C44.0252 39.447 43.4556 39.8268 43.4556 40.4217V44.8775Z" fill="#E48E00"/>
<path d="M62.8332 35.9342C61.6218 35.9013 60.6965 36.014 59.9055 36.3476C59.6807 36.4424 59.3222 36.4449 59.2855 36.7266C59.409 36.8561 59.4282 37.0495 59.5264 37.2088C59.7153 37.5144 60.0342 37.924 60.3187 38.1388C60.6296 38.3735 60.95 38.6245 61.2833 38.8277C61.8761 39.1892 62.5379 39.3956 63.1088 39.7578C63.4452 39.9712 63.7794 40.2401 64.1076 40.481C64.2698 40.6001 64.3789 40.7853 64.5898 40.8599C64.5898 40.8485 64.5898 40.837 64.5898 40.8255C64.479 40.6845 64.4504 40.4905 64.3487 40.3432C64.1995 40.194 64.0502 40.0447 63.9009 39.8954C63.4631 39.3143 62.9073 38.8039 62.3165 38.3799C61.8454 38.0417 60.7909 37.5849 60.5943 37.0366C60.5828 37.0251 60.5714 37.0136 60.5598 37.0021C60.8939 36.9645 61.285 36.8435 61.5933 36.761C62.1112 36.6221 62.574 36.658 63.1088 36.5199C63.3499 36.451 63.5909 36.382 63.8322 36.3132C63.8322 36.2672 63.8322 36.2214 63.8322 36.1754C63.5618 35.898 63.369 35.5309 63.0743 35.2799C62.303 34.6231 61.4612 33.9669 60.5943 33.4198C60.1135 33.1163 59.5194 32.9191 59.0099 32.6619C58.8385 32.5755 58.5374 32.5305 58.4242 32.3864C58.1566 32.0451 58.0108 31.6126 57.8044 31.2152C57.372 30.3826 56.9474 29.4733 56.5643 28.5974C56.303 28.0001 56.1324 27.411 55.8066 26.8751C54.2426 24.3037 52.5591 22.7516 49.9511 21.2261C49.3963 20.9017 48.7281 20.7735 48.0221 20.6062C47.6434 20.5832 47.2643 20.5602 46.8855 20.5372C46.6542 20.4406 46.4136 20.1576 46.1966 20.0205C45.3327 19.4747 43.1167 18.2876 42.4768 19.8483C42.0727 20.8335 43.0806 21.7948 43.4411 22.294C43.6941 22.6442 44.018 23.0368 44.1988 23.4306C44.3177 23.6895 44.3383 23.949 44.44 24.2229C44.6905 24.8976 44.9082 25.6316 45.2322 26.2551C45.3959 26.5706 45.5764 26.903 45.7834 27.1851C45.9103 27.3582 46.1277 27.4345 46.1621 27.7018C45.9494 27.9995 45.9373 28.4615 45.8177 28.8385C45.2794 30.5359 45.4824 32.6458 46.2655 33.902C46.5058 34.2876 47.0718 35.1147 47.8499 34.7976C48.5306 34.5203 48.3786 33.6611 48.5733 32.9031C48.6173 32.7312 48.5903 32.6048 48.6766 32.4898C48.6766 32.5011 48.6766 32.5127 48.6766 32.5242C48.8833 32.9375 49.09 33.3508 49.2967 33.7641C49.7555 34.5031 50.5699 35.2754 51.2599 35.7965C51.6178 36.0668 51.8995 36.534 52.3622 36.6921C52.3622 36.6806 52.3622 36.6692 52.3622 36.6576C52.3505 36.6576 52.3392 36.6576 52.3277 36.6576C52.238 36.5178 52.0978 36.4599 51.9833 36.3476C51.7137 36.0833 51.414 35.7548 51.191 35.452C50.5634 34.5999 50.0087 33.6672 49.5034 32.6964C49.262 32.2329 49.0522 31.7214 48.8487 31.2497C48.7703 31.0678 48.7712 30.7928 48.6078 30.6985C48.385 31.0442 48.0568 31.3237 47.8844 31.7319C47.6088 32.3844 47.5732 33.1801 47.4712 34.0053C47.4107 34.0269 47.4376 34.012 47.4021 34.0397C46.9224 33.924 46.7538 33.4301 46.5756 33.0065C46.1246 31.935 46.0409 30.2097 46.4377 28.9764C46.5403 28.6573 47.0044 27.6523 46.8166 27.3575C46.7269 27.0633 46.4311 26.8932 46.2655 26.6684C46.0607 26.3906 45.8561 26.0248 45.7143 25.704C45.3453 24.8685 45.1729 23.9307 44.7844 23.0863C44.5987 22.6826 44.2846 22.2741 44.0266 21.9152C43.7411 21.5176 43.4213 21.2248 43.2 20.7439C43.1213 20.573 43.0143 20.2995 43.1311 20.1239C43.1682 20.0054 43.2206 19.9559 43.3378 19.9173C43.5376 19.7632 44.094 19.9685 44.3021 20.055C44.8545 20.2844 45.3155 20.5029 45.7834 20.8128C46.008 20.9618 46.2351 21.2498 46.5066 21.3295C46.6099 21.3295 46.7133 21.3295 46.8166 21.3295C47.3015 21.441 47.8447 21.3641 48.2977 21.5017C49.0984 21.7451 49.8159 22.1236 50.4677 22.5351C52.453 23.7887 54.0763 25.5732 55.1866 27.7018C55.3653 28.0446 55.4426 28.3717 55.5999 28.7353C55.9174 29.4684 56.3173 30.2227 56.6331 30.9396C56.9483 31.6549 57.2555 32.3768 57.701 32.972C57.9353 33.2849 58.8399 33.4527 59.251 33.6264C59.5392 33.7483 60.0113 33.8752 60.2843 34.0397C60.8058 34.3542 61.3109 34.7287 61.8 35.0732C62.0444 35.2453 62.7957 35.623 62.8332 35.9342Z" fill="#00618A"/>
<path fill-rule="evenodd" clip-rule="evenodd" d="M47.4365 22.8107C47.1839 22.806 47.0053 22.8383 46.8164 22.8795C46.8164 22.891 46.8164 22.9025 46.8164 22.9139C46.8279 22.9139 46.8394 22.9139 46.8509 22.9139C46.9714 23.1615 47.1841 23.3208 47.3331 23.534C47.4479 23.7752 47.5627 24.0163 47.6776 24.2573C47.6889 24.2459 47.7006 24.2343 47.712 24.2229C47.9253 24.0726 48.023 23.8321 48.0219 23.4651C47.9365 23.3752 47.9239 23.2624 47.8498 23.1551C47.7512 23.0121 47.5607 22.9309 47.4365 22.8107Z" fill="#00618A"/>
<path fill-rule="evenodd" clip-rule="evenodd" d="M62.0244 45.8577C62.0244 46.7254 62.7099 47.31 63.4767 47.31C64.2435 47.31 64.929 46.7254 64.929 45.8577C64.929 44.9903 64.2435 44.4056 63.4767 44.4056C62.7099 44.4056 62.0244 44.9903 62.0244 45.8577ZM64.6036 45.8577C64.6036 46.516 64.1003 47.008 63.4767 47.008C62.8455 47.008 62.3497 46.516 62.3497 45.8577C62.3497 45.1994 62.8455 44.7075 63.4767 44.7075C64.1003 44.7075 64.6036 45.1994 64.6036 45.8577ZM63.868 46.6865H64.1932L63.717 45.9586C63.9725 45.9314 64.166 45.8074 64.166 45.5054C64.166 45.1684 63.9532 45.0291 63.5427 45.0291H62.8959V46.6865H63.1747V45.9701H63.4342L63.868 46.6865ZM63.1747 45.7377V45.2614H63.496C63.6627 45.2614 63.864 45.2924 63.864 45.4861C63.864 45.7182 63.682 45.7377 63.4729 45.7377H63.1747Z" fill="#E48E00"/>
</g>
<defs>
<clipPath id="clip0_336_100">
<rect width="60" height="30.9974" fill="white" transform="translate(5 19)"/>
</clipPath>
</defs>
</svg>
