<svg width="70" height="70" viewBox="0 0 70 70" fill="none" xmlns="http://www.w3.org/2000/svg">
<rect width="70" height="70" fill="#0A192F"/>
<path d="M35 62.1938C49.9117 62.1938 62 50.1055 62 35.1938C62 20.2822 49.9117 8.19385 35 8.19385C20.0883 8.19385 8 20.2822 8 35.1938C8 50.1055 20.0883 62.1938 35 62.1938Z" fill="#1A171B"/>
<path d="M51.0562 19.279C48.0126 19.3852 45.3562 21.0626 43.3788 23.3829C41.1892 25.927 39.7326 28.9446 38.683 32.0248C36.8057 30.4861 35.3573 28.4942 32.3453 27.6256C30.0172 26.9571 27.572 27.2332 25.3234 28.9085C24.2582 29.7042 23.5243 30.907 23.1754 32.0377C22.2718 34.976 24.1253 37.591 24.9672 38.5299L26.8077 40.5024C27.1872 40.8891 28.101 41.8981 27.6543 43.3446C27.1715 44.9173 25.2754 45.9357 23.3305 45.3357C22.4619 45.0708 21.2141 44.4237 21.4935 43.5125C21.609 43.1398 21.8757 42.8609 22.0187 42.5386C22.15 42.2618 22.2125 42.0542 22.2524 41.9323C22.6077 40.7721 22.1223 39.2628 20.8796 38.8796C19.7204 38.5242 18.5342 38.8057 18.0744 40.2985C17.5529 41.9942 18.3643 45.0718 22.7111 46.4119C27.8038 47.9766 32.1119 45.2037 32.7229 41.5871C33.1077 39.3218 32.0849 37.639 30.2111 35.4746L28.6844 33.7861C27.7595 32.8622 27.4419 31.2874 28.3991 30.0771C29.2068 29.0562 30.3571 28.6205 32.241 29.1328C34.9909 29.8795 36.2167 31.7876 38.2621 33.3265C37.4177 36.0966 36.8657 38.877 36.366 41.3703L36.0616 43.2291C34.5995 50.8981 33.4834 55.1091 30.583 57.5267C29.9987 57.9422 29.1634 58.5643 27.9043 58.6076C27.2443 58.628 27.0311 58.174 27.0219 57.9762C27.0062 57.5129 27.3967 57.3005 27.6561 57.0919C28.0438 56.8805 28.63 56.5299 28.5901 55.4065C28.5479 54.079 27.4483 52.928 25.8587 52.9807C24.6681 53.0213 22.8533 54.1418 22.9215 56.1929C22.9925 58.3114 24.9672 59.899 27.9442 59.7985C29.5356 59.7439 33.0892 59.0961 36.5915 54.9328C40.6677 50.1605 41.8077 44.6895 42.6653 40.6852L43.6225 35.3986C44.1543 35.4624 44.7229 35.5048 45.3414 35.5196C50.4182 35.6267 52.9577 32.997 52.9954 31.0842C53.0205 29.9267 52.2358 28.7876 51.1373 28.8134C50.351 28.8356 49.3631 29.359 49.1259 30.4465C48.8943 31.5134 50.7414 32.4762 49.2977 33.4113C48.2721 34.0751 46.4334 34.5429 43.844 34.1628L44.3149 31.5605C45.2758 26.6257 46.461 20.5556 50.9573 20.408C51.285 20.3913 52.484 20.4227 52.5119 21.2156C52.5201 21.4805 52.4545 21.548 52.1444 22.1543C51.8287 22.627 51.7096 23.0295 51.7244 23.4919C51.7678 24.7519 52.7259 25.5799 54.1115 25.53C55.9668 25.47 56.5005 23.6637 56.47 22.736C56.3951 20.5563 54.0977 19.1794 51.056 19.279H51.0562Z" fill="white"/>
</svg>
