<svg width="70" height="70" viewBox="0 0 70 70" fill="none" xmlns="http://www.w3.org/2000/svg">
<rect width="70" height="70" fill="black"/>
<path d="M35 62.1938C49.9117 62.1938 62 50.1055 62 35.1938C62 20.2821 49.9117 8.19383 35 8.19383C20.0883 8.19383 8 20.2821 8 35.1938C8 50.1055 20.0883 62.1938 35 62.1938Z" fill="#1A171B"/>
<path d="M51.056 19.2791C48.0124 19.3852 45.3559 21.0627 43.3785 23.383C41.189 25.9271 39.7323 28.9447 38.6828 32.0249C36.8055 30.4862 35.357 28.4942 32.3451 27.6256C30.017 26.9572 27.5718 27.2333 25.3232 28.9086C24.2579 29.7043 23.5241 30.9071 23.1751 32.0378C22.2716 34.9761 24.125 37.591 24.9669 38.5299L26.8075 40.5024C27.1869 40.8892 28.1007 41.8982 27.654 43.3447C27.1712 44.9174 25.2751 45.9357 23.3303 45.3357C22.4617 45.0709 21.2139 44.4238 21.4932 43.5125C21.6088 43.1399 21.8755 42.861 22.0185 42.5387C22.1497 42.2619 22.2123 42.0542 22.2521 41.9324C22.6074 40.7722 22.1221 39.2628 20.8794 38.8796C19.7202 38.5243 18.534 38.8058 18.0742 40.2985C17.5527 41.9942 18.3641 45.0718 22.7108 46.412C27.8036 47.9767 32.1116 45.2038 32.7226 41.5871C33.1075 39.3219 32.0847 37.6391 30.2108 35.4746L28.6841 33.7862C27.7593 32.8623 27.4417 31.2875 28.3989 30.0772C29.2065 29.0563 30.3568 28.6206 32.2408 29.1329C34.9907 29.8796 36.2165 31.7877 38.2619 33.3266C37.4174 36.0967 36.8655 38.8771 36.3658 41.3703L36.0613 43.2292C34.5993 50.8982 33.4832 55.1092 30.5828 57.5268C29.9985 57.9423 29.1632 58.5643 27.9041 58.6077C27.2441 58.6281 27.0308 58.1741 27.0217 57.9763C27.006 57.5129 27.3964 57.3006 27.6559 57.092C28.0436 56.8806 28.6297 56.53 28.5899 55.4066C28.5477 54.0791 27.448 52.9281 25.8585 52.9808C24.6678 53.0214 22.8531 54.1419 22.9213 56.1929C22.9923 58.3114 24.9669 59.8991 27.9439 59.7986C29.5354 59.7439 33.089 59.0961 36.5912 54.9329C40.6675 50.1606 41.8075 44.6896 42.6651 40.6853L43.6223 35.3987C44.1541 35.4624 44.7227 35.5049 45.3412 35.5196C50.418 35.6267 52.9575 32.997 52.9952 31.0843C53.0203 29.9267 52.2356 28.7877 51.1371 28.8135C50.3507 28.8357 49.3628 29.3591 49.1256 30.4466C48.8941 31.5135 50.7412 32.4763 49.2974 33.4114C48.2718 34.0752 46.4331 34.543 43.8438 34.1628L44.3146 31.5606C45.2756 26.6258 46.4608 20.5557 50.9571 20.4081C51.2847 20.3914 52.4838 20.4228 52.5117 21.2157C52.5199 21.4806 52.4542 21.5481 52.1442 22.1544C51.8285 22.6271 51.7094 23.0295 51.7242 23.492C51.7675 24.752 52.7257 25.58 54.1113 25.5301C55.9666 25.4701 56.5003 23.6638 56.4698 22.7361C56.3948 20.5564 54.0975 19.1795 51.0557 19.2791H51.056Z" fill="white"/>
</svg>
