<svg width="74" height="74" viewBox="0 0 74 74" fill="none" xmlns="http://www.w3.org/2000/svg">
<path d="M51.3162 10.4284C51.3162 8.61553 49.2864 8.6155 48.3843 8.84211C49.6472 7.84504 51.1282 8.08678 51.6544 8.38892L63.8507 14.3691C65.0128 14.939 65.75 16.1246 65.75 17.4239V56.7652C65.75 58.0819 64.9932 59.2801 63.8075 59.8408L52.331 65.2673C51.5417 65.6072 49.8277 66.4456 48.3843 65.2673C50.1885 65.6072 51.1658 64.3231 51.3162 63.4544V10.4284Z" fill="url(#paint0_linear_364_7)"/>
<path d="M48.5306 8.80924C49.4881 8.62004 51.3161 8.70778 51.3161 10.4282V23.9699L14.3393 51.9431C13.6929 52.4321 12.7834 52.351 12.2328 51.7553L8.42185 47.6315C7.82482 46.9855 7.86659 45.9743 8.51485 45.3802L48.3843 8.84193L48.5306 8.80924Z" fill="url(#paint1_linear_364_7)"/>
<path d="M51.3161 50.1392L14.3393 22.166C13.6929 21.677 12.7834 21.7581 12.2328 22.3538L8.42185 26.4776C7.82482 27.1236 7.86659 28.1349 8.51485 28.729L48.3843 65.2672V65.2672C50.1885 65.6071 51.1658 64.323 51.3161 63.4543V50.1392Z" fill="url(#paint2_linear_364_7)"/>
<defs>
<linearGradient id="paint0_linear_364_7" x1="57.0671" y1="8.125" x2="57.0671" y2="65.875" gradientUnits="userSpaceOnUse">
<stop stop-color="#32B5F1"/>
<stop offset="1" stop-color="#2B9FED"/>
</linearGradient>
<linearGradient id="paint1_linear_364_7" x1="51.3161" y1="15.4135" x2="10.1073" y2="50.004" gradientUnits="userSpaceOnUse">
<stop stop-color="#0F6FB3"/>
<stop offset="0.270551" stop-color="#1279B7"/>
<stop offset="0.421376" stop-color="#1176B5"/>
<stop offset="0.618197" stop-color="#0E69AC"/>
<stop offset="0.855344" stop-color="#0F70AF"/>
<stop offset="1" stop-color="#0F6DAD"/>
</linearGradient>
<linearGradient id="paint2_linear_364_7" x1="10.3826" y1="24.5912" x2="51.4757" y2="58.6162" gradientUnits="userSpaceOnUse">
<stop stop-color="#1791D2"/>
<stop offset="1" stop-color="#1173C5"/>
</linearGradient>
</defs>
</svg>
